<svg width="98" height="41" viewBox="0 0 98 41" fill="none" xmlns="http://www.w3.org/2000/svg">
<path d="M0 20.3814V9.04674C0 8.93829 0.080409 8.84666 0.187934 8.83257C4.46247 8.27248 7.17112 13.2841 4.36075 16.5532L0.811242 20.6821C0.532223 21.0067 0 20.8094 0 20.3814Z" fill="#FFA416"/>
<path d="M5.16774 18.3796L12.8565 10.3834C13.7328 9.47207 14.9425 8.95703 16.2068 8.95703H19.0267C20.2745 8.95703 20.8941 10.4704 20.0046 11.3454L10.6243 20.5732L20.3518 31.4403C21.1558 32.3384 20.5183 33.7646 19.3129 33.7646H17.1079C15.8598 33.7646 14.6642 33.2627 13.7901 32.3718L5.88301 24.3125V30.7704C5.88301 31.716 5.74873 32.7684 4.94336 33.264C3.65378 34.0574 1.67603 33.707 0.719378 32.6486C0.36578 32.2574 0.289079 31.7079 0.270596 31.1809C0.10387 26.427 1.8707 21.8084 5.16774 18.3796Z" fill="#0061E6"/>
<path d="M30.1298 33.5471C29.0355 33.5471 27.964 33.342 26.9153 32.9316C25.8894 32.4985 24.9547 31.8943 24.1112 31.1192C23.2904 30.3441 22.6293 29.4322 22.1278 28.3835C21.649 27.3348 21.4096 26.1835 21.4096 24.9296C21.4096 23.7213 21.6376 22.5928 22.0936 21.5441C22.5495 20.4954 23.1765 19.5721 23.9744 18.7742C24.7723 17.9763 25.6842 17.3608 26.7101 16.9276C27.7588 16.4717 28.8759 16.2437 30.0614 16.2437C31.6572 16.2437 33.1049 16.6312 34.4043 17.4064C35.7038 18.1587 36.7411 19.1846 37.5162 20.484C38.2913 21.7835 38.6789 23.254 38.6789 24.8954C38.6789 26.1949 38.4395 27.3804 37.9608 28.4519C37.482 29.5005 36.8323 30.4125 36.0116 31.1876C35.1909 31.9399 34.2676 32.5212 33.2417 32.9316C32.2386 33.342 31.2013 33.5471 30.1298 33.5471ZM30.0614 29.5119C30.8137 29.5119 31.5318 29.3296 32.2158 28.9648C32.9225 28.5772 33.4924 28.0301 33.9256 27.3234C34.3815 26.6166 34.6095 25.7845 34.6095 24.827C34.6095 23.9379 34.4043 23.1514 33.994 22.4675C33.6064 21.7835 33.0707 21.2478 32.3867 20.8602C31.7028 20.4727 30.9163 20.2789 30.0272 20.2789C29.1837 20.2789 28.4199 20.4841 27.736 20.8944C27.0521 21.282 26.5049 21.8291 26.0946 22.5358C25.707 23.2198 25.5132 23.9949 25.5132 24.8612C25.5132 25.8187 25.7298 26.6508 26.163 27.3576C26.5961 28.0415 27.1547 28.5772 27.8386 28.9648C28.5453 29.3296 29.2862 29.5119 30.0614 29.5119ZM43.3841 33.3078C42.7686 33.3078 42.3127 33.2052 42.0163 33C41.7427 32.8176 41.5717 32.5782 41.5033 32.2819C41.4349 31.9627 41.4007 31.6093 41.4007 31.2218V18.4323C41.4007 18.0675 41.4349 17.7369 41.5033 17.4406C41.5717 17.1442 41.7541 16.9162 42.0505 16.7566C42.3468 16.5742 42.8028 16.4831 43.4183 16.4831C43.9655 16.4831 44.3758 16.5514 44.6494 16.6882C44.923 16.825 45.1054 16.996 45.1966 17.2012C45.2878 17.4064 45.3334 17.6115 45.3334 17.8167C45.3561 18.0219 45.3789 18.1815 45.4017 18.2955L45.265 19.3898C45.4017 19.025 45.6297 18.6716 45.9489 18.3297C46.2681 17.9877 46.6556 17.6799 47.1116 17.4064C47.5675 17.11 48.0577 16.882 48.582 16.7224C49.1292 16.54 49.6877 16.4489 50.2577 16.4489C51.3292 16.4489 52.2867 16.6426 53.1302 17.0302C53.9737 17.4178 54.6918 17.9649 55.2846 18.6716C55.9001 19.3784 56.3674 20.2219 56.6866 21.2022C57.0058 22.1597 57.1654 23.2426 57.1654 24.4509V31.256C57.1654 31.6435 57.1198 31.9969 57.0286 32.3161C56.9602 32.6124 56.7892 32.8518 56.5156 33.0342C56.2421 33.2166 55.7747 33.3078 55.1136 33.3078C54.4752 33.3078 54.0079 33.2052 53.7115 33C53.4151 32.8176 53.2328 32.5782 53.1644 32.2819C53.096 31.9627 53.0618 31.6093 53.0618 31.2218V24.4167C53.0618 23.5959 52.9136 22.8892 52.6172 22.2965C52.3437 21.7037 51.9333 21.2478 51.3861 20.9286C50.8618 20.6094 50.1893 20.4499 49.3685 20.4499C48.5706 20.4499 47.8753 20.6208 47.2826 20.9628C46.6898 21.282 46.2339 21.7379 45.9147 22.3307C45.5955 22.9234 45.4359 23.6187 45.4359 24.4167V31.256C45.4359 31.6435 45.4017 31.9969 45.3334 32.3161C45.265 32.6124 45.0826 32.8518 44.7862 33.0342C44.5126 33.2166 44.0453 33.3078 43.3841 33.3078ZM62.5195 33.3078C61.904 33.3078 61.448 33.2052 61.1517 33C60.8781 32.8176 60.7071 32.5782 60.6387 32.2819C60.5703 31.9627 60.5361 31.6093 60.5361 31.2218V18.4323C60.5361 18.0675 60.5703 17.7369 60.6387 17.4406C60.7071 17.1442 60.8895 16.9162 61.1859 16.7566C61.4822 16.5742 61.9382 16.4831 62.5537 16.4831C63.1009 16.4831 63.5112 16.5514 63.7848 16.6882C64.0584 16.825 64.2408 16.996 64.332 17.2012C64.4231 17.4064 64.4687 17.6115 64.4687 17.8167C64.4915 18.0219 64.5143 18.1815 64.5371 18.2955L64.4003 19.3898C64.5371 19.025 64.7651 18.6716 65.0843 18.3297C65.4034 17.9877 65.791 17.6799 66.247 17.4064C66.7029 17.11 67.1931 16.882 67.7174 16.7224C68.2646 16.54 68.8231 16.4489 69.3931 16.4489C70.4645 16.4489 71.422 16.6426 72.2656 17.0302C73.1091 17.4178 73.8272 17.9649 74.4199 18.6716C75.0355 19.3784 75.5028 20.2219 75.822 21.2022C76.1412 22.1597 76.3008 23.2426 76.3008 24.4509V31.256C76.3008 31.6435 76.2552 31.9969 76.164 32.3161C76.0956 32.6124 75.9246 32.8518 75.651 33.0342C75.3775 33.2166 74.9101 33.3078 74.249 33.3078C73.6106 33.3078 73.1433 33.2052 72.8469 33C72.5505 32.8176 72.3682 32.5782 72.2998 32.2819C72.2314 31.9627 72.1972 31.6093 72.1972 31.2218V24.4167C72.1972 23.5959 72.049 22.8892 71.7526 22.2965C71.479 21.7037 71.0687 21.2478 70.5215 20.9286C69.9972 20.6094 69.3247 20.4499 68.5039 20.4499C67.706 20.4499 67.0107 20.6208 66.4179 20.9628C65.8252 21.282 65.3693 21.7379 65.0501 22.3307C64.7309 22.9234 64.5713 23.6187 64.5713 24.4167V31.256C64.5713 31.6435 64.5371 31.9969 64.4687 32.3161C64.4003 32.6124 64.218 32.8518 63.9216 33.0342C63.648 33.2166 63.1807 33.3078 62.5195 33.3078ZM93.6579 33.2736C92.9968 33.2736 92.5066 33.1482 92.1875 32.8974C91.8683 32.6466 91.7087 32.3047 91.7087 31.8715L91.9481 30.743C91.7657 31.0394 91.458 31.3928 91.0248 31.8031C90.5916 32.1907 90.0217 32.544 89.315 32.8632C88.6082 33.1596 87.7533 33.3078 86.7502 33.3078C85.6787 33.3078 84.6642 33.0912 83.7067 32.658C82.772 32.2021 81.9399 31.5865 81.2104 30.8114C80.5036 30.0135 79.9337 29.113 79.5005 28.1099C79.0902 27.084 78.885 25.9897 78.885 24.827C78.885 23.7099 79.0902 22.6612 79.5005 21.6809C79.9337 20.6778 80.515 19.7887 81.2446 19.0136C81.9741 18.2385 82.8062 17.6343 83.7409 17.2012C84.6984 16.7452 85.7015 16.5172 86.7502 16.5172C87.6849 16.5172 88.4715 16.6426 89.1098 16.8934C89.7709 17.1442 90.3295 17.4634 90.7854 17.8509C91.2414 18.2157 91.6175 18.6032 91.9139 19.0136L91.7087 18.0219C91.7087 17.5203 91.8683 17.1442 92.1875 16.8934C92.5066 16.6198 93.0082 16.4831 93.6921 16.4831C94.3305 16.4831 94.7864 16.5856 95.06 16.7908C95.3336 16.9732 95.5045 17.2354 95.5729 17.5773C95.6413 17.8965 95.6755 18.2613 95.6755 18.6716V31.1876C95.6755 31.5751 95.6413 31.9285 95.5729 32.2477C95.5045 32.5668 95.3222 32.8176 95.0258 33C94.7522 33.1824 94.2963 33.2736 93.6579 33.2736ZM87.3658 29.3068C88.1409 29.3068 88.8362 29.113 89.4518 28.7254C90.0673 28.3379 90.5574 27.8135 90.9222 27.1524C91.3098 26.4685 91.5035 25.7161 91.5035 24.8954C91.5035 24.0063 91.3098 23.2312 90.9222 22.57C90.5346 21.9089 90.0217 21.396 89.3834 21.0312C88.7678 20.6436 88.0725 20.4499 87.2974 20.4499C86.4539 20.4499 85.7015 20.655 85.0404 21.0654C84.3793 21.453 83.8549 21.9887 83.4674 22.6726C83.1026 23.3338 82.9202 24.0861 82.9202 24.9296C82.9202 25.7503 83.114 26.4913 83.5015 27.1524C83.8891 27.8135 84.4135 28.3379 85.0746 28.7254C85.7585 29.113 86.5222 29.3068 87.3658 29.3068Z" fill="white"/>
</svg>
