<svg width="761" height="581" viewBox="0 0 761 581" fill="none" xmlns="http://www.w3.org/2000/svg">
<g clip-path="url(#clip0_8498_66922)">
<g opacity="0.3">
<path d="M664.589 399.21V386.419L661.059 384.453C660.065 390.5 652.962 394.474 647.021 395.299L606.578 418.956L588.925 425.298L532.563 396.229L533.873 395.468C529.053 393.227 526.474 388.068 523.853 383.375L520.068 385.637L517.806 386.271V399.4C517.949 400.889 518.484 402.313 519.357 403.527C520.23 404.742 521.409 405.703 522.774 406.313L579.221 438.913C582.938 440.79 587.044 441.767 591.208 441.767C595.372 441.767 599.478 440.79 603.195 438.913L659.642 406.313C660.989 405.709 662.155 404.763 663.023 403.568C663.89 402.374 664.431 400.973 664.589 399.506V399.189V399.21Z" fill="url(#paint0_linear_8498_66922)"/>
<path opacity="0.3" d="M647.021 395.343L606.578 418.957L591.208 424.496V441.853C595.381 441.933 599.506 440.951 603.195 438.999L659.642 406.399C660.989 405.795 662.155 404.849 663.023 403.655C663.891 402.46 664.431 401.06 664.589 399.592V399.275V386.484L661.355 384.688H661.017C659.917 390.565 652.898 394.476 647.021 395.343Z" fill="#0F054C"/>
<path d="M579.221 425.933L522.774 393.333C516.157 389.528 516.157 383.312 522.774 379.507L579.221 346.907C582.938 345.03 587.044 344.053 591.208 344.053C595.372 344.053 599.478 345.03 603.195 346.907L659.642 379.507C666.238 383.312 666.238 389.528 659.642 393.333L603.195 425.933C599.478 427.81 595.372 428.787 591.208 428.787C587.044 428.787 582.938 427.81 579.221 425.933Z" fill="url(#paint1_linear_8498_66922)"/>
<g opacity="0.3">
<path d="M579.221 425.933L522.774 393.333C516.157 389.528 516.157 383.312 522.774 379.507L579.221 346.907C582.938 345.03 587.044 344.053 591.208 344.053C595.372 344.053 599.478 345.03 603.195 346.907L659.642 379.507C666.238 383.312 666.238 389.528 659.642 393.333L603.195 425.933C599.478 427.81 595.372 428.787 591.208 428.787C587.044 428.787 582.938 427.81 579.221 425.933Z" fill="#0F054C"/>
</g>
</g>
<path d="M591.209 384.768C587.525 384.836 583.885 383.955 580.639 382.21L524.192 349.632C522.858 349.166 521.703 348.297 520.885 347.146C520.068 345.994 519.628 344.617 519.628 343.205C519.628 341.793 520.068 340.415 520.885 339.264C521.703 338.112 522.858 337.244 524.192 336.778L580.617 304.178C583.918 302.51 587.564 301.641 591.262 301.641C594.96 301.641 598.606 302.51 601.907 304.178L658.375 336.757C659.708 337.222 660.863 338.091 661.681 339.243C662.499 340.394 662.938 341.771 662.938 343.184C662.938 344.596 662.499 345.973 661.681 347.125C660.863 348.276 659.708 349.145 658.375 349.611L601.928 382.189C598.639 383.963 594.945 384.852 591.209 384.768ZM581.061 381.365C584.208 382.955 587.684 383.784 591.209 383.784C594.735 383.784 598.211 382.955 601.357 381.365L657.804 348.828C658.981 348.447 660.007 347.702 660.734 346.701C661.462 345.701 661.854 344.495 661.854 343.258C661.854 342.02 661.462 340.815 660.734 339.814C660.007 338.813 658.981 338.069 657.804 337.687L601.293 305.024C598.149 303.429 594.672 302.597 591.146 302.597C587.619 302.597 584.143 303.429 580.998 305.024L524.551 337.602C523.374 337.984 522.348 338.729 521.62 339.729C520.893 340.73 520.501 341.936 520.501 343.173C520.501 344.411 520.893 345.616 521.62 346.617C522.348 347.618 523.374 348.362 524.551 348.744L581.061 381.365Z" fill="#8DD6FF"/>
<path opacity="0.4" d="M664.59 330.67V311.347L661.059 309.381C660.065 315.406 652.962 319.38 647.021 320.205L606.578 343.862L588.925 350.204L532.563 321.114L533.874 320.374C529.054 318.112 526.475 312.975 523.853 308.281L520.069 310.543L517.807 311.178V330.839C517.949 332.328 518.485 333.752 519.357 334.966C520.23 336.181 521.409 337.142 522.775 337.752L579.222 370.352C582.939 372.228 587.045 373.206 591.209 373.206C595.373 373.206 599.479 372.228 603.196 370.352L659.643 337.752C660.987 337.15 662.15 336.207 663.018 335.016C663.886 333.826 664.427 332.43 664.59 330.966V330.627V330.67Z" fill="#8DD6FF"/>
<path d="M664.59 313.482V300.691L661.059 298.725C660.065 304.771 652.962 308.746 647.021 309.57L606.578 333.227L588.925 339.57L532.563 310.501L533.874 309.74C529.054 307.499 526.475 302.361 523.853 297.668L520.069 299.93L517.807 300.564V313.672C517.807 316.188 519.456 318.682 522.775 320.585L579.222 353.185C582.939 355.061 587.045 356.039 591.209 356.039C595.373 356.039 599.479 355.061 603.196 353.185L659.643 320.585C660.987 319.983 662.15 319.04 663.018 317.849C663.886 316.659 664.427 315.263 664.59 313.799V313.46V313.482Z" fill="url(#paint2_linear_8498_66922)"/>
<path opacity="0.3" d="M647.022 309.571L606.579 333.228L591.209 338.767V356.06C595.382 356.14 599.507 355.158 603.196 353.206L659.643 320.606C660.987 320.004 662.151 319.061 663.018 317.871C663.886 316.681 664.428 315.284 664.59 313.82V313.482V300.692L661.355 298.895H661.017C659.918 304.835 652.899 308.662 647.022 309.571Z" fill="#0F054C"/>
<path d="M579.222 340.204L522.775 307.626C516.158 303.799 516.158 297.605 522.775 293.778L579.222 261.2C582.936 259.313 587.043 258.33 591.209 258.33C595.375 258.33 599.482 259.313 603.196 261.2L659.643 293.863C666.239 297.69 666.239 303.884 659.643 307.711L603.196 340.289C599.475 342.163 595.365 343.131 591.199 343.117C587.033 343.102 582.93 342.104 579.222 340.204Z" fill="url(#paint3_linear_8498_66922)"/>
<path d="M591.209 333.334C587.947 333.394 584.724 332.622 581.843 331.094L539.138 306.549C537.951 306.129 536.924 305.351 536.197 304.323C535.471 303.295 535.081 302.068 535.081 300.809C535.081 299.55 535.471 298.322 536.197 297.294C536.924 296.266 537.951 295.489 539.138 295.069L581.843 270.418C584.743 268.949 587.947 268.184 591.198 268.184C594.449 268.184 597.653 268.949 600.553 270.418L643.279 295.069C644.456 295.498 645.473 296.279 646.192 297.306C646.91 298.333 647.295 299.556 647.295 300.809C647.295 302.062 646.91 303.285 646.192 304.311C645.473 305.338 644.456 306.119 643.279 306.549L600.553 331.199C597.669 332.689 594.454 333.423 591.209 333.334ZM591.209 269.213C588.145 269.159 585.118 269.887 582.414 271.327L539.709 295.978C538.706 296.303 537.832 296.938 537.212 297.79C536.592 298.643 536.258 299.67 536.258 300.724C536.258 301.778 536.592 302.806 537.212 303.658C537.832 304.511 538.706 305.145 539.709 305.47L582.414 330.121C585.137 331.498 588.146 332.215 591.198 332.215C594.25 332.215 597.259 331.498 599.982 330.121L642.687 305.47C643.69 305.145 644.564 304.511 645.184 303.658C645.804 302.806 646.138 301.778 646.138 300.724C646.138 299.67 645.804 298.643 645.184 297.79C644.564 296.938 643.69 296.303 642.687 295.978L599.982 271.327C597.285 269.887 594.265 269.159 591.209 269.213Z" fill="#5351AF"/>
<path d="M659.644 307.627L603.197 340.206C599.482 342.092 595.375 343.075 591.21 343.075C587.044 343.075 582.937 342.092 579.223 340.206L522.776 307.627C521.545 307.047 520.463 306.193 519.613 305.13C518.763 304.067 518.167 302.824 517.871 301.496C517.49 304.266 519.118 307.098 522.776 309.213L579.223 341.812C582.94 343.689 587.046 344.667 591.21 344.667C595.374 344.667 599.48 343.689 603.197 341.812L659.644 309.213C663.301 307.098 664.929 304.266 664.527 301.496C664.24 302.825 663.649 304.069 662.802 305.133C661.955 306.196 660.874 307.05 659.644 307.627Z" fill="white"/>
<path style="mix-blend-mode:lighten" opacity="0.5" d="M567.467 166.783L535.756 185.07C526.242 190.567 517.765 188.516 514.615 179.933L452.1 8.79549C444.954 -10.7601 415.716 6.91393 409.543 34.5243L370.96 206.782C368.149 219.467 359.417 231.919 349.523 237.627L340.306 242.955C331.363 248.113 323.266 246.633 319.757 239.171L307.072 212.131C299.165 195.366 272.802 211.18 265.614 236.993C262.295 248.895 253.987 260.248 244.727 265.639L236.672 270.29C226.926 275.914 218.279 273.609 215.341 264.561L203.713 228.833C197.159 208.664 167.773 225.45 161.113 253.229L122.425 412.697C119.402 425.234 110.628 437.517 100.819 443.013L56.2534 467.981L567.467 166.783Z" fill="url(#paint4_linear_8498_66922)"/>
<path d="M96.633 484.346L96.1045 483.416L134.37 462C144.116 456.524 152.72 444.474 155.744 432L194.326 272.554C199.083 252.935 214.431 239.299 225.784 238.876C231.661 238.622 235.953 241.92 237.962 248.093L249.589 283.843C250.046 285.549 250.888 287.128 252.049 288.458C253.211 289.788 254.662 290.835 256.291 291.517C260.139 292.997 265.064 292.194 270.138 289.276L278.193 284.625C287.284 279.361 295.571 267.987 298.827 256.296C304.049 237.586 318.615 225.071 329.143 224.162C331.67 223.874 334.222 224.418 336.412 225.711C338.602 227.004 340.31 228.977 341.278 231.329L353.963 258.368C354.57 259.78 355.47 261.048 356.604 262.086C357.737 263.125 359.078 263.911 360.538 264.393C364.301 265.577 368.994 264.689 373.772 261.941L382.99 256.613C392.694 251.011 401.425 238.453 404.131 226.107L442.692 53.8487C446.921 34.4834 462.628 20.1708 473.918 19.4309C479.753 19.0715 484.108 22.1158 486.285 28.0353L548.905 199.279C549.41 200.898 550.273 202.382 551.429 203.623C552.586 204.863 554.006 205.828 555.586 206.445C559.413 207.841 564.275 207.016 569.264 204.141L593.978 189.871L594.528 190.78L569.962 205.071C564.677 208.116 559.497 208.961 555.375 207.46C553.647 206.794 552.092 205.747 550.825 204.396C549.559 203.045 548.614 201.426 548.06 199.659L485.419 28.4159C483.41 22.8769 479.52 20.192 474.129 20.5091C463.22 21.2067 448.105 35.181 443.876 54.0812L405.315 226.318C402.44 239.151 393.708 251.687 383.603 257.544L374.406 262.85C369.354 265.767 364.343 266.677 360.305 265.408C358.706 264.881 357.236 264.024 355.99 262.891C354.744 261.758 353.751 260.375 353.075 258.833L340.39 231.794C339.522 229.63 337.963 227.815 335.955 226.629C333.948 225.444 331.605 224.956 329.291 225.24C319.122 226.086 305 238.326 299.926 256.571C296.586 268.516 288.108 280.165 278.785 285.534L270.73 290.185C265.382 293.272 260.16 294.118 255.932 292.511C254.143 291.757 252.552 290.602 251.28 289.136C250.008 287.67 249.09 285.931 248.596 284.055L236.968 248.326C235.086 242.555 231.26 239.552 225.848 239.87C215.108 240.271 199.95 253.886 195.383 272.723L156.758 432.254C153.672 444.939 144.898 457.327 134.898 462.93L96.633 484.346Z" fill="#8DD6FF"/>
<path d="M446.888 1.36285L446.361 2.2793L480.453 21.8751L480.98 20.9587L446.888 1.36285Z" fill="#8DD6FF"/>
<path d="M336.627 227.119L302.146 207.225L302.675 206.316L337.177 226.21L336.627 227.119Z" fill="#8DD6FF"/>
<path d="M197.236 220.355L196.71 221.271L232.668 241.906L233.194 240.989L197.236 220.355Z" fill="#8DD6FF"/>
<path d="M220.097 557.979C216.825 557.986 213.607 557.149 210.753 555.548L95.5548 491.047C94.9239 490.672 94.4012 490.14 94.0381 489.503C93.6751 488.865 93.4842 488.144 93.4842 487.41C93.4842 486.677 93.6751 485.956 94.0381 485.318C94.4012 484.681 94.9239 484.148 95.5548 483.774L134.391 462.02C144.158 456.565 152.742 444.494 155.765 432.021L194.368 272.553C196.731 262.838 201.874 254.022 209.167 247.184L203.269 229.044C201.387 223.252 197.519 220.313 192.128 220.588C181.367 220.99 166.187 234.605 161.621 253.484L122.911 412.803C119.825 425.488 111.051 437.855 101.052 443.458L1.37101 499.334L0.884766 498.488L100.565 442.591C110.332 437.116 118.937 425.065 121.939 412.571L160.543 253.124C165.278 233.526 180.627 219.911 191.98 219.467C197.836 219.214 202.106 222.512 204.115 228.664L209.865 246.401C214.201 242.204 219.807 239.564 225.805 238.896C231.64 238.685 235.911 241.941 237.919 248.114L243.627 265.661L244.388 265.217C253.479 259.953 261.788 248.558 265.043 236.867C270.244 218.178 284.81 205.662 295.317 204.774C297.84 204.475 300.392 205.013 302.58 206.303C304.768 207.594 306.473 209.567 307.431 211.92L315.993 230.08C319.74 226.929 324.296 224.893 329.143 224.203C331.665 223.911 334.214 224.452 336.4 225.741C338.587 227.031 340.293 229 341.257 231.349L345.147 239.594L349.27 237.205C358.995 231.602 367.726 219.045 370.411 206.677L408.972 34.419C413.391 15.0749 428.972 0.783469 440.261 0.00124671C446.033 -0.421576 450.409 2.66503 452.565 8.58455L459.14 26.5545C463.256 22.6885 468.472 20.1985 474.066 19.43C479.816 19.0494 484.235 22.0937 486.391 28.0133L542.288 180.758L563.704 168.39C564.874 167.715 566.201 167.359 567.552 167.359C568.903 167.359 570.23 167.715 571.4 168.39L594.951 181.921C595.711 182.353 596.344 182.978 596.784 183.734C597.224 184.49 597.456 185.349 597.456 186.223C597.456 187.098 597.224 187.956 596.784 188.712C596.344 189.468 595.711 190.094 594.951 190.525L570.004 204.944C564.74 207.967 559.561 208.812 555.459 207.332C553.739 206.663 552.191 205.617 550.929 204.271C549.667 202.924 548.722 201.312 548.166 199.553L541.823 182.238L536.178 185.494C530.914 188.538 525.756 189.384 521.633 187.883C519.91 187.22 518.358 186.176 517.095 184.829C515.832 183.481 514.89 181.866 514.34 180.103L458.696 28.267C451.28 35.1787 446.122 44.1681 443.897 54.0592L405.336 226.317C402.461 239.15 393.751 251.687 383.645 257.5L374.449 262.828C369.396 265.724 364.407 266.633 360.39 265.386C358.792 264.862 357.323 264.005 356.081 262.871C354.838 261.738 353.85 260.354 353.181 258.811L344.724 240.989L340.496 243.378C335.464 246.296 330.454 247.205 326.437 245.936C324.84 245.417 323.371 244.564 322.129 243.434C320.886 242.304 319.897 240.923 319.228 239.382L315.571 231.602C307.907 238.144 302.396 246.846 299.757 256.57C296.438 268.494 287.939 280.143 278.616 285.512L270.582 290.163C265.234 293.25 260.012 294.075 255.784 292.468C254.012 291.735 252.432 290.605 251.168 289.164C249.903 287.724 248.987 286.011 248.49 284.159L242.951 267.12L236.609 270.714C231.26 273.8 226.038 274.625 221.81 273.039C220.034 272.303 218.452 271.169 217.183 269.725C215.915 268.281 214.995 266.565 214.495 264.71L209.146 248.262C202.35 254.959 197.58 263.437 195.383 272.722L156.737 432.253C153.651 444.938 144.856 457.305 134.877 462.887L96.0199 484.641C95.5323 484.92 95.1272 485.324 94.8454 485.81C94.5637 486.296 94.4153 486.848 94.4153 487.41C94.4153 487.972 94.5637 488.524 94.8454 489.011C95.1272 489.497 95.5323 489.9 96.0199 490.18L211.239 554.682C214.005 556.238 217.132 557.038 220.305 557.001C223.479 556.964 226.586 556.091 229.315 554.47L432.502 434.748L433.01 435.615L229.822 555.316C226.879 557.062 223.519 557.982 220.097 557.979ZM244.008 266.612L249.61 283.842C250.071 285.555 250.916 287.14 252.081 288.477C253.246 289.814 254.7 290.868 256.333 291.559C260.202 293.039 265.149 292.235 270.223 289.297L278.278 284.646C287.368 279.403 295.677 268.008 298.933 256.295C301.663 246.304 307.361 237.376 315.275 230.693L306.607 212.343C305.744 210.164 304.181 208.333 302.164 207.139C300.147 205.945 297.791 205.456 295.465 205.747C285.297 206.614 271.153 218.854 266.079 237.12C262.739 249.065 254.261 260.693 244.938 266.084L244.008 266.612ZM210.309 247.585L215.784 264.498C216.242 266.209 217.086 267.793 218.252 269.127C219.417 270.461 220.873 271.51 222.507 272.193C226.397 273.695 231.323 272.891 236.418 269.953L242.761 266.253L236.989 248.494C235.107 242.723 231.239 239.826 225.827 240.038C221.07 240.08 215.425 242.85 210.182 247.522L210.309 247.585ZM345.612 240.545L354.069 258.452C354.682 259.87 355.588 261.142 356.729 262.184C357.87 263.227 359.218 264.015 360.686 264.498C362.947 265.009 365.289 265.054 367.569 264.628C369.848 264.203 372.016 263.317 373.941 262.025L383.159 256.718C392.884 251.095 401.594 238.537 404.3 226.169L442.883 53.9112C445.198 43.6832 450.6 34.4138 458.358 27.3579L451.635 9.02852C449.521 3.48954 445.716 0.762328 440.325 1.10059C429.395 1.79824 414.258 15.7725 410.029 34.6939L371.447 206.888C368.593 219.7 359.861 232.258 349.777 238.072L345.612 240.545ZM316.459 231.032L320.116 238.896C320.725 240.311 321.628 241.581 322.765 242.62C323.902 243.658 325.248 244.443 326.712 244.921C330.475 246.105 335.169 245.239 339.989 242.469L344.217 240.038L340.285 231.708C339.419 229.537 337.858 227.714 335.846 226.524C333.834 225.335 331.484 224.846 329.164 225.133C324.449 225.836 320.029 227.859 316.416 230.968L316.459 231.032ZM542.627 181.815L548.969 199.299C549.477 200.922 550.344 202.41 551.503 203.654C552.663 204.898 554.087 205.866 555.671 206.487C559.497 207.861 564.381 207.058 569.37 204.161L594.338 189.743C594.944 189.398 595.449 188.898 595.799 188.294C596.15 187.691 596.335 187.006 596.335 186.308C596.335 185.61 596.15 184.924 595.799 184.321C595.449 183.717 594.944 183.218 594.338 182.872L570.829 169.363C569.808 168.781 568.653 168.475 567.478 168.475C566.303 168.475 565.148 168.781 564.127 169.363L542.627 181.815ZM459.5 27.4847L515.206 179.701C515.712 181.325 516.577 182.815 517.738 184.059C518.898 185.304 520.323 186.271 521.908 186.889C525.735 188.284 530.618 187.46 535.629 184.585L541.422 181.223L485.461 28.3938C483.347 22.8548 479.478 20.1065 474.129 20.4659C468.639 21.2189 463.523 23.6736 459.5 27.4847Z" fill="#8DD6FF"/>
<path style="mix-blend-mode:lighten" opacity="0.5" d="M594.402 189.742L569.688 204.012C560.174 209.509 551.697 207.458 548.547 198.896L485.905 27.6529C478.76 8.09735 449.521 25.7713 443.327 53.3817L404.766 225.64C401.954 238.324 393.223 250.777 383.329 256.506L374.111 261.812C365.168 266.992 357.071 265.491 353.541 258.028L340.856 230.988C332.928 214.223 306.586 230.037 299.398 255.85C296.079 267.753 287.771 279.106 278.49 284.497L270.456 289.148C260.689 294.792 252.063 292.467 249.125 283.418L237.497 247.69C230.943 227.521 201.557 244.307 194.898 272.087L156.252 431.639C153.207 444.176 144.455 456.48 134.624 461.955L90.0586 486.923L594.402 189.742Z" fill="url(#paint5_linear_8498_66922)"/>
<g opacity="0.3">
<path d="M544.403 466.523V453.838L540.872 451.872C539.857 457.898 532.754 461.893 526.813 462.718L486.307 486.248L468.633 492.59L412.228 463.479L413.539 462.718C408.719 460.477 406.119 455.318 403.497 450.625L399.713 452.887L397.451 453.521V466.65C397.451 469.166 399.1 471.66 402.419 473.584L458.929 506.205C462.647 508.092 466.757 509.075 470.927 509.075C475.096 509.075 479.206 508.092 482.924 506.205L539.435 473.584C540.786 472.983 541.955 472.038 542.827 470.844C543.699 469.649 544.242 468.247 544.403 466.777V466.439V466.523Z" fill="url(#paint6_linear_8498_66922)"/>
<path opacity="0.3" d="M526.813 462.613L486.306 486.249L470.937 491.809V509.123C475.112 509.198 479.237 508.209 482.924 506.248L539.434 473.627C540.785 473.026 541.955 472.081 542.826 470.887C543.698 469.692 544.241 468.29 544.402 466.82V466.482V453.797L541.167 452H540.829C539.73 457.877 532.69 461.788 526.813 462.613Z" fill="#0F054C"/>
<path d="M458.929 493.287L402.418 460.645C395.801 456.84 395.801 450.624 402.418 446.798L458.929 414.177C462.647 412.29 466.757 411.307 470.926 411.307C475.096 411.307 479.206 412.29 482.924 414.177L539.434 446.798C546.051 450.624 546.051 456.84 539.434 460.645L482.903 493.287C479.185 495.16 475.079 496.136 470.916 496.136C466.752 496.136 462.647 495.16 458.929 493.287Z" fill="url(#paint7_linear_8498_66922)"/>
<g opacity="0.3">
<path d="M458.929 493.287L402.418 460.645C395.801 456.84 395.801 450.624 402.418 446.798L458.929 414.177C462.647 412.29 466.757 411.307 470.926 411.307C475.096 411.307 479.206 412.29 482.924 414.177L539.434 446.798C546.051 450.624 546.051 456.84 539.434 460.645L482.903 493.287C479.185 495.16 475.079 496.136 470.916 496.136C466.752 496.136 462.647 495.16 458.929 493.287Z" fill="#0F054C"/>
</g>
</g>
<path d="M470.937 454.196C467.254 454.25 463.617 453.37 460.366 451.638L403.771 419.018C402.441 418.547 401.288 417.675 400.473 416.522C399.658 415.369 399.221 413.992 399.221 412.58C399.221 411.168 399.658 409.791 400.473 408.638C401.288 407.485 402.441 406.614 403.771 406.143L460.282 373.522C463.579 371.844 467.226 370.969 470.926 370.969C474.626 370.969 478.274 371.844 481.571 373.522L538.102 406.143C539.433 406.614 540.586 407.485 541.4 408.638C542.215 409.791 542.653 411.168 542.653 412.58C542.653 413.992 542.215 415.369 541.4 416.522C540.586 417.675 539.433 418.547 538.102 419.018L481.592 451.638C478.315 453.381 474.648 454.261 470.937 454.196ZM460.768 450.793C463.917 452.388 467.397 453.22 470.926 453.22C474.456 453.22 477.936 452.388 481.085 450.793L537.595 418.151C538.772 417.769 539.798 417.025 540.526 416.024C541.253 415.023 541.645 413.817 541.645 412.58C541.645 411.343 541.253 410.137 540.526 409.136C539.798 408.136 538.772 407.391 537.595 407.009L481.085 374.367C477.936 372.772 474.456 371.941 470.926 371.941C467.397 371.941 463.917 372.772 460.768 374.367L404.258 407.009C403.081 407.391 402.055 408.136 401.327 409.136C400.599 410.137 400.208 411.343 400.208 412.58C400.208 413.817 400.599 415.023 401.327 416.024C402.055 417.025 403.081 417.769 404.258 418.151L460.768 450.793Z" fill="#8DD6FF"/>
<path opacity="0.4" d="M544.403 400.056V380.712L540.872 378.746C539.857 384.771 532.754 388.767 526.813 389.591L486.307 413.269L468.633 419.612L412.228 390.5L413.539 389.739C408.719 387.498 406.119 382.34 403.497 377.646L399.713 379.909L397.451 380.543V400.225C397.451 402.741 399.1 405.236 402.419 407.16L458.929 439.738C462.644 441.621 466.751 442.603 470.916 442.603C475.081 442.603 479.188 441.621 482.903 439.738L539.413 407.117C540.764 406.516 541.934 405.571 542.806 404.377C543.678 403.182 544.221 401.78 544.382 400.31V399.972L544.403 400.056Z" fill="#8DD6FF"/>
<path d="M544.403 382.847V369.972L540.872 368.006C539.857 374.052 532.754 378.026 526.813 378.851L486.307 402.529L468.633 408.871L412.228 379.76L413.539 378.999C408.719 376.758 406.119 371.6 403.497 366.906L399.713 369.168L397.451 369.803V382.931C397.59 384.424 398.123 385.852 398.996 387.071C399.869 388.289 401.05 389.254 402.419 389.866L458.929 422.486C462.647 424.373 466.757 425.356 470.927 425.356C475.096 425.356 479.206 424.373 482.924 422.486L539.435 389.866C540.786 389.264 541.955 388.319 542.827 387.125C543.699 385.93 544.242 384.528 544.403 383.058V382.72V382.847Z" fill="url(#paint8_linear_8498_66922)"/>
<path opacity="0.3" d="M526.813 378.935L486.306 402.613L470.937 408.173V425.487C475.106 425.569 479.226 424.579 482.902 422.612L539.413 389.992C540.764 389.39 541.933 388.445 542.805 387.251C543.677 386.056 544.22 384.654 544.381 383.184V382.846V369.971L541.146 368.174H540.808C539.73 374.199 532.69 378.11 526.813 378.935Z" fill="#0F054C"/>
<path d="M413.539 379.124L467.089 348.215C468.278 347.61 469.593 347.295 470.926 347.295C472.26 347.295 473.575 347.61 474.763 348.215L527.299 378.595L526.728 378.934C532.669 378.109 539.773 374.135 540.787 368.088L481.719 335.235L464.552 330.689L450.557 338.913L403.412 367.031C406.118 371.724 408.719 376.883 413.539 379.124Z" fill="url(#paint9_linear_8498_66922)"/>
<path opacity="0.3" d="M470.937 332.36L464.594 330.689L450.599 338.913L403.454 367.031C406.076 371.724 408.676 376.883 413.496 379.124L467.047 348.215C468.229 347.582 469.553 347.261 470.894 347.285L470.937 332.36Z" fill="#0F054C"/>
<path d="M458.929 409.611L402.418 376.99C395.801 373.164 395.801 366.948 402.418 363.122L458.929 330.501C462.647 328.614 466.757 327.631 470.926 327.631C475.096 327.631 479.206 328.614 482.924 330.501L539.434 363.122C546.051 366.948 546.051 373.164 539.434 376.99L482.903 409.611C479.188 411.494 475.081 412.476 470.916 412.476C466.751 412.476 462.644 411.494 458.929 409.611ZM474.763 335.215C473.575 334.61 472.26 334.295 470.926 334.295C469.593 334.295 468.278 334.61 467.089 335.215L410.579 367.857C410.116 368.016 409.715 368.315 409.43 368.713C409.146 369.111 408.993 369.588 408.993 370.077C408.993 370.566 409.146 371.043 409.43 371.441C409.715 371.839 410.116 372.138 410.579 372.297L467.089 404.918C468.278 405.523 469.593 405.838 470.926 405.838C472.26 405.838 473.575 405.523 474.763 404.918L531.274 372.297C531.736 372.138 532.138 371.839 532.422 371.441C532.706 371.043 532.859 370.566 532.859 370.077C532.859 369.588 532.706 369.111 532.422 368.713C532.138 368.315 531.736 368.016 531.274 367.857L474.763 335.215Z" fill="url(#paint10_linear_8498_66922)"/>
<path d="M531.274 367.856L474.763 335.235C473.575 334.63 472.26 334.314 470.926 334.314C469.592 334.314 468.278 334.63 467.089 335.235L410.579 367.856C409.162 368.659 408.697 369.822 409.162 370.879C409.472 370.263 409.967 369.76 410.579 369.441L467.089 336.821C468.278 336.216 469.592 335.9 470.926 335.9C472.26 335.9 473.575 336.216 474.763 336.821L531.274 369.441C531.885 369.76 532.381 370.263 532.69 370.879C533.155 369.801 532.69 368.659 531.274 367.856Z" fill="white"/>
<path d="M539.434 376.988L482.902 409.609C479.184 411.496 475.074 412.479 470.905 412.479C466.735 412.479 462.625 411.496 458.907 409.609L402.397 376.988C401.168 376.406 400.087 375.551 399.237 374.488C398.388 373.426 397.791 372.185 397.492 370.857C397.112 373.606 398.739 376.46 402.397 378.574L458.907 411.195C462.625 413.082 466.735 414.065 470.905 414.065C475.074 414.065 479.184 413.082 482.902 411.195L539.413 378.574C543.07 376.46 544.719 373.627 544.317 370.857C544.021 372.182 543.427 373.423 542.581 374.485C541.735 375.547 540.659 376.403 539.434 376.988Z" fill="white"/>
<path d="M460.514 408.679L404.004 376.058C398.275 372.739 398.275 367.348 404.004 364.05L460.514 331.408C463.746 329.79 467.312 328.947 470.926 328.947C474.541 328.947 478.106 329.79 481.338 331.408L537.87 364.05C543.599 367.348 543.599 372.739 537.87 376.058L481.359 408.679C478.13 410.319 474.559 411.174 470.937 411.174C467.315 411.174 463.744 410.319 460.514 408.679ZM476.37 334.284C474.683 333.429 472.818 332.984 470.926 332.984C469.035 332.984 467.17 333.429 465.482 334.284L408.909 366.904C405.907 368.638 405.907 371.45 408.909 373.247L465.482 405.91C467.17 406.764 469.035 407.21 470.926 407.21C472.818 407.21 474.683 406.764 476.37 405.91L532.88 373.268C535.882 371.534 535.882 368.722 532.88 366.925L476.37 334.284Z" fill="url(#paint11_linear_8498_66922)"/>
<path opacity="0.4" d="M474.764 335.216C473.575 334.61 472.26 334.295 470.927 334.295C469.593 334.295 468.278 334.61 467.09 335.216L410.579 367.858C410.117 368.016 409.715 368.315 409.431 368.713C409.146 369.111 408.994 369.588 408.994 370.077C408.994 370.566 409.146 371.043 409.431 371.441C409.715 371.839 410.117 372.139 410.579 372.297L467.09 404.918C468.278 405.523 469.593 405.839 470.927 405.839C472.26 405.839 473.575 405.523 474.764 404.918L531.274 372.297C531.737 372.139 532.138 371.839 532.423 371.441C532.707 371.043 532.86 370.566 532.86 370.077C532.86 369.588 532.707 369.111 532.423 368.713C532.138 368.315 531.737 368.016 531.274 367.858L474.764 335.216Z" fill="#8DD6FF"/>
<path style="mix-blend-mode:lighten" opacity="0.5" d="M532.859 369.969V168.451H408.909V369.969C408.945 370.453 409.112 370.919 409.391 371.317C409.67 371.715 410.051 372.031 410.494 372.231L467.005 404.851C468.193 405.457 469.508 405.772 470.842 405.772C472.175 405.772 473.49 405.457 474.679 404.851L531.189 372.231C531.651 372.047 532.052 371.738 532.347 371.338C532.642 370.938 532.82 370.464 532.859 369.969Z" fill="url(#paint12_linear_8498_66922)"/>
<path d="M412.545 306.081C406.52 312.234 390.664 320.457 385.738 315.637C380.812 310.817 388.719 294.792 394.744 288.64C400.77 282.488 409.543 281.41 414.554 286.23C419.564 291.05 418.571 299.929 412.545 306.081Z" fill="url(#paint13_radial_8498_66922)"/>
<path style="mix-blend-mode:lighten" d="M412.545 306.081C406.52 312.234 390.664 320.457 385.738 315.637C380.812 310.817 388.719 294.792 394.744 288.64C400.77 282.488 409.543 281.41 414.554 286.23C419.564 291.05 418.571 299.929 412.545 306.081Z" fill="url(#paint14_linear_8498_66922)"/>
<path d="M413.243 289.383C412.864 289.387 412.489 289.307 412.144 289.15C411.435 288.855 410.871 288.291 410.578 287.582C410.285 286.872 410.285 286.075 410.579 285.366L419.48 263.992C419.777 263.283 420.344 262.721 421.055 262.429C421.767 262.138 422.565 262.141 423.275 262.438C423.984 262.735 424.546 263.302 424.837 264.014C425.129 264.725 425.126 265.524 424.828 266.233L415.928 287.522C415.717 288.065 415.349 288.532 414.87 288.863C414.392 289.195 413.825 289.376 413.243 289.383Z" fill="#8DD6FF"/>
<path d="M526.905 281.603L521.535 283.775L540.075 329.595L545.445 327.422L526.905 281.603Z" fill="#8DD6FF"/>
<path d="M445.758 257.648C445.068 261.138 443.358 264.346 440.845 266.864C438.332 269.383 435.128 271.1 431.639 271.798C428.151 272.497 424.533 272.145 421.244 270.787C417.955 269.43 415.143 267.127 413.162 264.171C411.182 261.215 410.122 257.739 410.118 254.181C410.113 250.622 411.164 247.143 413.136 244.182C415.109 241.221 417.916 238.911 421.201 237.545C424.486 236.179 428.103 235.818 431.593 236.507C436.273 237.436 440.392 240.184 443.048 244.148C445.704 248.111 446.678 252.967 445.758 257.648Z" fill="url(#paint15_radial_8498_66922)"/>
<g style="mix-blend-mode:lighten">
<path d="M431.978 271.747C441.679 269.596 447.799 259.989 445.649 250.288C443.498 240.588 433.891 234.467 424.19 236.618C414.489 238.768 408.369 248.376 410.519 258.076C412.67 267.777 422.277 273.898 431.978 271.747Z" fill="url(#paint16_linear_8498_66922)"/>
</g>
<path d="M517.806 286.824C517.806 321.749 497.024 350.057 471.296 350.057C445.567 350.057 424.785 321.749 424.785 286.824C424.785 251.899 445.588 241.455 471.296 241.455C497.003 241.455 517.806 251.899 517.806 286.824Z" fill="url(#paint17_radial_8498_66922)"/>
<g style="mix-blend-mode:lighten">
<path d="M517.806 286.824C517.806 321.749 497.024 350.057 471.296 350.057C445.567 350.057 424.785 321.749 424.785 286.824C424.785 251.899 445.588 241.455 471.296 241.455C497.003 241.455 517.806 251.899 517.806 286.824Z" fill="url(#paint18_linear_8498_66922)"/>
</g>
<path d="M471.36 278.534C488.862 278.534 503.05 270.338 503.05 260.226C503.05 250.115 488.862 241.918 471.36 241.918C453.857 241.918 439.669 250.115 439.669 260.226C439.669 270.338 453.857 278.534 471.36 278.534Z" fill="#393091"/>
<path d="M448.95 252.15C461.339 245.004 481.402 245.004 493.79 252.15C498.885 255.11 501.887 258.81 502.775 262.721C504.044 257.266 501.042 251.537 493.79 247.33C481.402 240.184 461.339 240.184 448.95 247.33C441.677 251.558 438.696 257.266 439.944 262.721C440.853 258.81 443.834 255.11 448.95 252.15Z" fill="#8DD6FF"/>
<path d="M457.534 192.598C457.295 197.252 455.96 201.785 453.638 205.826C451.316 209.867 448.073 213.303 444.172 215.853C436.794 220.081 430.79 216.678 430.79 208.137C431.031 203.48 432.369 198.947 434.695 194.905C437.02 190.864 440.268 187.43 444.172 184.881C451.551 180.611 457.534 184.078 457.534 192.598Z" fill="#BCBEFF"/>
<path d="M473.199 263.905C499.365 263.905 520.576 242.693 520.576 216.528C520.576 190.362 499.365 169.15 473.199 169.15C447.033 169.15 425.822 190.362 425.822 216.528C425.822 242.693 447.033 263.905 473.199 263.905Z" fill="url(#paint19_radial_8498_66922)"/>
<g style="mix-blend-mode:lighten">
<path d="M473.199 263.903C499.365 263.903 520.576 242.691 520.576 216.526C520.576 190.36 499.365 169.148 473.199 169.148C447.033 169.148 425.822 190.36 425.822 216.526C425.822 242.691 447.033 263.903 473.199 263.903Z" fill="url(#paint20_linear_8498_66922)"/>
</g>
<path d="M450.425 248.976C456.538 246.451 457.95 235.827 453.579 225.246C449.209 214.666 440.711 208.135 434.599 210.659C428.487 213.184 427.075 223.808 431.445 234.389C435.816 244.969 444.313 251.5 450.425 248.976Z" fill="#393091"/>
<path d="M450.285 234.15C452.516 233.222 453.023 229.34 451.417 225.481C449.81 221.622 446.699 219.247 444.468 220.176C442.237 221.104 441.73 224.986 443.336 228.845C444.943 232.704 448.054 235.079 450.285 234.15Z" fill="#8DD6FF"/>
<path d="M446.307 244.16C442.413 240.836 439.359 236.638 437.393 231.91C435.428 227.182 434.607 222.057 434.997 216.951C435.086 215.407 435.487 213.896 436.178 212.511C436.868 211.127 437.833 209.897 439.014 208.896C435.103 209.256 432.143 212.575 431.403 218.304C431.022 223.411 431.849 228.535 433.818 233.262C435.787 237.99 438.841 242.186 442.734 245.513C447.153 248.896 451.423 249.234 454.404 247.035C451.442 247.112 448.557 246.088 446.307 244.16Z" fill="#453C9E"/>
<path d="M443.369 245.237C439.475 241.916 436.419 237.723 434.45 232.999C432.481 228.275 431.654 223.153 432.037 218.05C432.111 216.329 432.594 214.65 433.448 213.154C434.301 211.657 435.499 210.386 436.942 209.445C434.088 210.629 432.016 213.674 431.403 218.346C431.029 223.445 431.859 228.561 433.828 233.281C435.796 238 438.847 242.19 442.734 245.512C446.73 248.578 450.62 249.127 453.538 247.626C450.705 248.747 447.09 248.049 443.369 245.237Z" fill="#8DD6FF"/>
<path d="M541.865 286.146C541.175 289.636 539.465 292.844 536.952 295.362C534.439 297.881 531.236 299.598 527.747 300.296C524.258 300.995 520.64 300.643 517.352 299.285C514.063 297.928 511.25 295.625 509.27 292.669C507.289 289.713 506.23 286.237 506.225 282.679C506.22 279.121 507.271 275.641 509.244 272.68C511.216 269.719 514.023 267.409 517.308 266.043C520.594 264.677 524.21 264.316 527.701 265.005C530.019 265.462 532.225 266.372 534.191 267.683C536.158 268.993 537.847 270.678 539.163 272.641C540.478 274.604 541.394 276.807 541.858 279.125C542.321 281.442 542.324 283.828 541.865 286.146Z" fill="url(#paint21_radial_8498_66922)"/>
<g style="mix-blend-mode:lighten">
<path d="M541.865 286.148C541.175 289.638 539.465 292.846 536.952 295.364C534.439 297.883 531.236 299.6 527.747 300.298C524.258 300.997 520.64 300.645 517.352 299.287C514.063 297.93 511.25 295.627 509.27 292.671C507.289 289.715 506.23 286.239 506.225 282.681C506.22 279.122 507.271 275.643 509.244 272.682C511.216 269.721 514.023 267.411 517.308 266.045C520.594 264.679 524.21 264.318 527.701 265.007C530.019 265.464 532.225 266.374 534.191 267.685C536.158 268.995 537.847 270.68 539.163 272.643C540.478 274.606 541.394 276.809 541.858 279.127C542.321 281.444 542.324 283.83 541.865 286.148Z" fill="url(#paint22_linear_8498_66922)"/>
</g>
<path d="M552.901 342.255C551.886 350.712 544.339 366.99 537.51 366.166C530.682 365.341 527.151 347.836 528.166 339.295C529.181 330.754 535.544 324.497 542.373 325.3C549.201 326.103 553.916 333.693 552.901 342.255Z" fill="url(#paint23_radial_8498_66922)"/>
<path style="mix-blend-mode:lighten" d="M552.901 342.255C551.886 350.712 544.339 366.99 537.51 366.166C530.682 365.341 527.151 347.836 528.166 339.295C529.181 330.754 535.544 324.497 542.373 325.3C549.201 326.103 553.916 333.693 552.901 342.255Z" fill="url(#paint24_linear_8498_66922)"/>
<g opacity="0.3">
<path d="M664.589 538.909V526.224L661.059 524.258C660.065 530.283 652.962 534.279 647.021 535.103L606.578 558.633L588.925 564.976L532.563 535.907L533.873 535.145C529.053 532.905 526.474 527.746 523.853 523.053L520.068 525.315L517.806 525.949V539.099C517.949 540.588 518.484 542.012 519.357 543.226C520.23 544.441 521.409 545.402 522.774 546.012L579.221 578.612C582.938 580.488 587.044 581.466 591.208 581.466C595.372 581.466 599.478 580.488 603.195 578.612L659.642 546.012C660.989 545.408 662.155 544.462 663.023 543.267C663.89 542.073 664.431 540.672 664.589 539.205V538.887V538.909Z" fill="url(#paint25_linear_8498_66922)"/>
<path opacity="0.3" d="M647.021 534.998L606.578 558.634L591.208 564.194V581.488C595.381 581.567 599.506 580.585 603.195 578.634L659.642 546.034C660.989 545.43 662.155 544.484 663.023 543.289C663.891 542.095 664.431 540.694 664.589 539.227V538.909V526.225L661.355 524.428H661.017C659.917 530.263 652.898 534.174 647.021 534.998Z" fill="#0F054C"/>
<path d="M579.221 565.632L522.774 533.032C516.157 529.227 516.157 523.012 522.774 519.206L579.221 486.607C582.938 484.73 587.044 483.752 591.208 483.752C595.372 483.752 599.478 484.73 603.195 486.607L659.642 519.206C666.238 523.012 666.238 529.227 659.642 533.032L603.195 565.632C599.478 567.509 595.372 568.487 591.208 568.487C587.044 568.487 582.938 567.509 579.221 565.632Z" fill="url(#paint26_linear_8498_66922)"/>
<g opacity="0.3">
<path d="M579.221 565.632L522.774 533.032C516.157 529.227 516.157 523.012 522.774 519.206L579.221 486.607C582.938 484.73 587.044 483.752 591.208 483.752C595.372 483.752 599.478 484.73 603.195 486.607L659.642 519.206C666.238 523.012 666.238 529.227 659.642 533.032L603.195 565.632C599.478 567.509 595.372 568.487 591.208 568.487C587.044 568.487 582.938 567.509 579.221 565.632Z" fill="#0F054C"/>
</g>
</g>
<path d="M591.209 524.431C587.528 524.494 583.89 523.621 580.639 521.894L524.192 489.315C522.858 488.85 521.703 487.981 520.885 486.829C520.068 485.678 519.628 484.301 519.628 482.888C519.628 481.476 520.068 480.099 520.885 478.947C521.703 477.796 522.858 476.927 524.192 476.461L580.554 443.967C583.854 442.299 587.501 441.43 591.199 441.43C594.897 441.43 598.543 442.299 601.843 443.967L658.375 476.461C659.708 476.927 660.863 477.796 661.681 478.947C662.499 480.099 662.938 481.476 662.938 482.888C662.938 484.301 662.499 485.678 661.681 486.829C660.863 487.981 659.708 488.85 658.375 489.315L601.928 521.894C598.631 523.643 594.94 524.517 591.209 524.431ZM591.209 442.297C587.674 442.223 584.179 443.06 581.061 444.728L524.615 477.307C523.437 477.689 522.412 478.433 521.684 479.434C520.956 480.435 520.564 481.64 520.564 482.878C520.564 484.115 520.956 485.321 521.684 486.321C522.412 487.322 523.437 488.067 524.615 488.448L581.061 521.048C584.208 522.638 587.684 523.467 591.209 523.467C594.735 523.467 598.211 522.638 601.357 521.048L657.804 488.364C658.981 487.982 660.007 487.238 660.734 486.237C661.462 485.236 661.854 484.03 661.854 482.793C661.854 481.556 661.462 480.35 660.734 479.349C660.007 478.349 658.981 477.604 657.804 477.222L601.293 444.728C598.193 443.075 594.722 442.239 591.209 442.297Z" fill="#8DD6FF"/>
<path opacity="0.4" d="M664.59 470.368V451.045L661.059 449.079C660.065 455.104 652.962 459.079 647.021 459.903L606.578 483.56L588.925 489.902L532.563 460.876L533.874 460.136C529.054 457.874 526.475 452.736 523.853 448.043L520.069 450.305L517.807 450.939V470.601C517.949 472.089 518.485 473.513 519.357 474.728C520.23 475.942 521.409 476.904 522.775 477.514L579.222 510.113C582.939 511.99 587.045 512.968 591.209 512.968C595.373 512.968 599.479 511.99 603.196 510.113L659.643 477.514C660.987 476.911 662.15 475.968 663.018 474.778C663.886 473.588 664.427 472.191 664.59 470.727V470.389V470.368Z" fill="#8DD6FF"/>
<path d="M664.59 453.181V440.39L661.059 438.424C660.065 444.47 652.962 448.445 647.021 449.269L606.578 472.926L588.925 479.269L532.563 450.305L533.874 449.544C529.054 447.303 526.475 442.166 523.853 437.473L520.069 439.735L517.807 440.369V453.477C517.807 455.992 519.456 458.487 522.775 460.39L579.222 492.989C582.939 494.866 587.045 495.844 591.209 495.844C595.373 495.844 599.479 494.866 603.196 492.989L659.643 460.39C660.987 459.787 662.15 458.844 663.018 457.654C663.886 456.464 664.427 455.067 664.59 453.603V453.265V453.181Z" fill="url(#paint27_linear_8498_66922)"/>
<path opacity="0.3" d="M647.022 449.272L606.579 472.929L591.209 478.468V495.761C595.382 495.841 599.507 494.859 603.196 492.907L659.643 460.308C660.987 459.705 662.151 458.762 663.018 457.572C663.886 456.382 664.428 454.985 664.59 453.521V453.183V440.393L661.355 438.596H661.017C659.918 444.536 652.899 448.447 647.022 449.272Z" fill="#0F054C"/>
<path d="M579.222 479.907L522.775 447.329C516.158 443.502 516.158 437.308 522.775 433.481L579.222 400.882C582.938 399 587.044 398.02 591.209 398.02C595.374 398.02 599.481 399 603.196 400.882L659.643 433.397C666.239 437.223 666.239 443.418 659.643 447.244L603.196 479.907C599.482 481.794 595.375 482.777 591.209 482.777C587.043 482.777 582.936 481.794 579.222 479.907Z" fill="url(#paint28_linear_8498_66922)"/>
<path d="M659.644 447.328L603.197 479.907C599.482 481.793 595.375 482.777 591.21 482.777C587.044 482.777 582.937 481.793 579.223 479.907L522.776 447.328C521.545 446.748 520.463 445.894 519.613 444.831C518.763 443.769 518.167 442.526 517.871 441.197C517.49 443.967 519.118 446.8 522.776 448.914L579.223 481.513C582.94 483.39 587.046 484.368 591.21 484.368C595.374 484.368 599.48 483.39 603.197 481.513L659.644 448.914C663.301 446.8 664.929 443.967 664.527 441.197C664.24 442.526 663.649 443.77 662.802 444.834C661.955 445.897 660.874 446.751 659.644 447.328Z" fill="white"/>
</g>
<defs>
<linearGradient id="paint0_linear_8498_66922" x1="532.415" y1="361.008" x2="648.881" y2="428.237" gradientUnits="userSpaceOnUse">
<stop stop-color="#BCBEFF"/>
<stop offset="0.23" stop-color="#AAADF8"/>
<stop offset="0.68" stop-color="#7C83E5"/>
<stop offset="1" stop-color="#5761D7"/>
</linearGradient>
<linearGradient id="paint1_linear_8498_66922" x1="517.806" y1="386.42" x2="664.589" y2="386.42" gradientUnits="userSpaceOnUse">
<stop stop-color="#E9E9FD"/>
<stop offset="0.36" stop-color="#D3D2F9"/>
<stop offset="0.71" stop-color="#C5C4F7"/>
<stop offset="1" stop-color="#C0BFF6"/>
</linearGradient>
<linearGradient id="paint2_linear_8498_66922" x1="532.415" y1="275.279" x2="648.882" y2="342.529" gradientUnits="userSpaceOnUse">
<stop stop-color="#BCBEFF"/>
<stop offset="0.23" stop-color="#AAADF8"/>
<stop offset="0.68" stop-color="#7C83E5"/>
<stop offset="1" stop-color="#5761D7"/>
</linearGradient>
<linearGradient id="paint3_linear_8498_66922" x1="517.807" y1="300.692" x2="664.59" y2="300.692" gradientUnits="userSpaceOnUse">
<stop stop-color="#E9E9FD"/>
<stop offset="0.36" stop-color="#D3D2F9"/>
<stop offset="0.71" stop-color="#C5C4F7"/>
<stop offset="1" stop-color="#C0BFF6"/>
</linearGradient>
<linearGradient id="paint4_linear_8498_66922" x1="567.552" y1="234.245" x2="56.2534" y2="234.245" gradientUnits="userSpaceOnUse">
<stop stop-color="#42E8E0"/>
<stop offset="0.11" stop-color="#37B6BF"/>
<stop offset="0.22" stop-color="#2C87A1"/>
<stop offset="0.34" stop-color="#235F87"/>
<stop offset="0.46" stop-color="#1C3F72"/>
<stop offset="0.58" stop-color="#162561"/>
<stop offset="0.71" stop-color="#121355"/>
<stop offset="0.85" stop-color="#10084E"/>
<stop offset="1" stop-color="#0F054C"/>
</linearGradient>
<linearGradient id="paint5_linear_8498_66922" x1="594.402" y1="253.187" x2="90.0798" y2="253.187" gradientUnits="userSpaceOnUse">
<stop stop-color="#42E8E0"/>
<stop offset="0.11" stop-color="#37B6BF"/>
<stop offset="0.22" stop-color="#2C87A1"/>
<stop offset="0.34" stop-color="#235F87"/>
<stop offset="0.46" stop-color="#1C3F72"/>
<stop offset="0.58" stop-color="#162561"/>
<stop offset="0.71" stop-color="#121355"/>
<stop offset="0.85" stop-color="#10084E"/>
<stop offset="1" stop-color="#0F054C"/>
</linearGradient>
<linearGradient id="paint6_linear_8498_66922" x1="412.08" y1="428.279" x2="528.674" y2="495.592" gradientUnits="userSpaceOnUse">
<stop stop-color="#BCBEFF"/>
<stop offset="0.23" stop-color="#AAADF8"/>
<stop offset="0.68" stop-color="#7C83E5"/>
<stop offset="1" stop-color="#5761D7"/>
</linearGradient>
<linearGradient id="paint7_linear_8498_66922" x1="397.45" y1="453.732" x2="544.402" y2="453.732" gradientUnits="userSpaceOnUse">
<stop stop-color="#E9E9FD"/>
<stop offset="0.36" stop-color="#D3D2F9"/>
<stop offset="0.71" stop-color="#C5C4F7"/>
<stop offset="1" stop-color="#C0BFF6"/>
</linearGradient>
<linearGradient id="paint8_linear_8498_66922" x1="412.08" y1="344.602" x2="528.674" y2="411.916" gradientUnits="userSpaceOnUse">
<stop stop-color="#BCBEFF"/>
<stop offset="0.23" stop-color="#AAADF8"/>
<stop offset="0.68" stop-color="#7C83E5"/>
<stop offset="1" stop-color="#5761D7"/>
</linearGradient>
<linearGradient id="paint9_linear_8498_66922" x1="419.078" y1="340.076" x2="523.05" y2="400.096" gradientUnits="userSpaceOnUse">
<stop offset="0.24" stop-color="#5761D7"/>
<stop offset="0.39" stop-color="#7A82E5"/>
<stop offset="0.55" stop-color="#979CF0"/>
<stop offset="0.7" stop-color="#ACAFF8"/>
<stop offset="0.85" stop-color="#B8BAFD"/>
<stop offset="1" stop-color="#BCBEFF"/>
</linearGradient>
<linearGradient id="paint10_linear_8498_66922" x1="397.45" y1="370.056" x2="544.402" y2="370.056" gradientUnits="userSpaceOnUse">
<stop stop-color="#E9E9FD"/>
<stop offset="0.36" stop-color="#D3D2F9"/>
<stop offset="0.71" stop-color="#C5C4F7"/>
<stop offset="1" stop-color="#C0BFF6"/>
</linearGradient>
<linearGradient id="paint11_linear_8498_66922" x1="399.712" y1="370.054" x2="542.14" y2="370.054" gradientUnits="userSpaceOnUse">
<stop stop-color="#E9E9FD"/>
<stop offset="0.36" stop-color="#D3D2F9"/>
<stop offset="0.71" stop-color="#C5C4F7"/>
<stop offset="1" stop-color="#C0BFF6"/>
</linearGradient>
<linearGradient id="paint12_linear_8498_66922" x1="470.916" y1="405.803" x2="470.916" y2="168.451" gradientUnits="userSpaceOnUse">
<stop stop-color="#42E8E0"/>
<stop offset="0.11" stop-color="#37B6BF"/>
<stop offset="0.22" stop-color="#2C87A1"/>
<stop offset="0.34" stop-color="#235F87"/>
<stop offset="0.46" stop-color="#1C3F72"/>
<stop offset="0.58" stop-color="#162561"/>
<stop offset="0.71" stop-color="#121355"/>
<stop offset="0.85" stop-color="#10084E"/>
<stop offset="1" stop-color="#0F054C"/>
</linearGradient>
<radialGradient id="paint13_radial_8498_66922" cx="0" cy="0" r="1" gradientUnits="userSpaceOnUse" gradientTransform="translate(420.393 289.4) rotate(44.1186) scale(31.9723 52.6265)">
<stop stop-color="#C0BFF6"/>
<stop offset="1" stop-color="#393091"/>
</radialGradient>
<linearGradient id="paint14_linear_8498_66922" x1="390.579" y1="307.084" x2="362.156" y2="308.461" gradientUnits="userSpaceOnUse">
<stop stop-color="#42E6DF"/>
<stop offset="0.14" stop-color="#40B6CB"/>
<stop offset="0.27" stop-color="#3E8DB9"/>
<stop offset="0.41" stop-color="#3C6BAA"/>
<stop offset="0.55" stop-color="#3B519F"/>
<stop offset="0.69" stop-color="#3A3F97"/>
<stop offset="0.84" stop-color="#393493"/>
<stop offset="1" stop-color="#393091"/>
</linearGradient>
<radialGradient id="paint15_radial_8498_66922" cx="0" cy="0" r="1" gradientUnits="userSpaceOnUse" gradientTransform="translate(514.173 196.709) rotate(11.2) scale(103.845 103.845)">
<stop stop-color="#C0BFF6"/>
<stop offset="1" stop-color="#393091"/>
</radialGradient>
<linearGradient id="paint16_linear_8498_66922" x1="418.389" y1="269.433" x2="437.722" y2="239.086" gradientUnits="userSpaceOnUse">
<stop stop-color="#42E6DF"/>
<stop offset="0.14" stop-color="#40B6CB"/>
<stop offset="0.27" stop-color="#3E8DB9"/>
<stop offset="0.41" stop-color="#3C6BAA"/>
<stop offset="0.55" stop-color="#3B519F"/>
<stop offset="0.69" stop-color="#3A3F97"/>
<stop offset="0.84" stop-color="#393493"/>
<stop offset="1" stop-color="#393091"/>
</linearGradient>
<radialGradient id="paint17_radial_8498_66922" cx="0" cy="0" r="1" gradientUnits="userSpaceOnUse" gradientTransform="translate(502.197 277.74) scale(80.0099 108.731)">
<stop stop-color="#9DD0FF"/>
<stop offset="1" stop-color="#2D7EDD"/>
</radialGradient>
<linearGradient id="paint18_linear_8498_66922" x1="474.725" y1="350.504" x2="474.725" y2="241.817" gradientUnits="userSpaceOnUse">
<stop stop-color="#42E6DF"/>
<stop offset="0.14" stop-color="#40B6CB"/>
<stop offset="0.27" stop-color="#3E8DB9"/>
<stop offset="0.41" stop-color="#3C6BAA"/>
<stop offset="0.55" stop-color="#3B519F"/>
<stop offset="0.69" stop-color="#3A3F97"/>
<stop offset="0.84" stop-color="#393493"/>
<stop offset="1" stop-color="#393091"/>
</linearGradient>
<radialGradient id="paint19_radial_8498_66922" cx="0" cy="0" r="1" gradientUnits="userSpaceOnUse" gradientTransform="translate(502.776 209.509) scale(80.0615 80.0615)">
<stop stop-color="#C0BFF6"/>
<stop offset="1" stop-color="#3396CE"/>
</radialGradient>
<linearGradient id="paint20_linear_8498_66922" x1="466.624" y1="263.459" x2="486.09" y2="173.5" gradientUnits="userSpaceOnUse">
<stop stop-color="#42E6DF"/>
<stop offset="0.14" stop-color="#40B6CB"/>
<stop offset="0.27" stop-color="#60B7E8"/>
<stop offset="0.41" stop-color="#57B8D7"/>
<stop offset="0.55" stop-color="#55B8D8"/>
<stop offset="0.69" stop-color="#52C0E2"/>
<stop offset="0.84" stop-color="#78BBFA"/>
<stop offset="1" stop-color="#54B7E1"/>
</linearGradient>
<radialGradient id="paint21_radial_8498_66922" cx="0" cy="0" r="1" gradientUnits="userSpaceOnUse" gradientTransform="translate(534.909 270.922) rotate(11.2) scale(37.5255 37.5255)">
<stop stop-color="#BFD5F6"/>
<stop offset="1" stop-color="#2146C7"/>
</radialGradient>
<linearGradient id="paint22_linear_8498_66922" x1="509.693" y1="293.238" x2="538.796" y2="272.082" gradientUnits="userSpaceOnUse">
<stop stop-color="#42E6DF"/>
<stop offset="0.14" stop-color="#40B6CB"/>
<stop offset="0.27" stop-color="#3E8DB9"/>
<stop offset="0.41" stop-color="#3C96AA"/>
<stop offset="0.55" stop-color="#3B939F"/>
<stop offset="0.69" stop-color="#3A8197"/>
<stop offset="0.84" stop-color="#346593"/>
<stop offset="1" stop-color="#306891"/>
</linearGradient>
<radialGradient id="paint23_radial_8498_66922" cx="0" cy="0" r="1" gradientUnits="userSpaceOnUse" gradientTransform="translate(560.433 333.21) rotate(6.89243) scale(31.8776 52.54)">
<stop stop-color="#C0BFF6"/>
<stop offset="1" stop-color="#393091"/>
</radialGradient>
<linearGradient id="paint24_linear_8498_66922" x1="525.353" y1="344.614" x2="550.069" y2="347.649" gradientUnits="userSpaceOnUse">
<stop stop-color="#42E6DF"/>
<stop offset="0.14" stop-color="#40B6CB"/>
<stop offset="0.27" stop-color="#3E8DB9"/>
<stop offset="0.41" stop-color="#3C6BAA"/>
<stop offset="0.55" stop-color="#3B519F"/>
<stop offset="0.69" stop-color="#3A3F97"/>
<stop offset="0.84" stop-color="#393493"/>
<stop offset="1" stop-color="#393091"/>
</linearGradient>
<linearGradient id="paint25_linear_8498_66922" x1="532.415" y1="500.707" x2="648.881" y2="567.935" gradientUnits="userSpaceOnUse">
<stop stop-color="#BCBEFF"/>
<stop offset="0.23" stop-color="#AAADF8"/>
<stop offset="0.68" stop-color="#7C83E5"/>
<stop offset="1" stop-color="#5761D7"/>
</linearGradient>
<linearGradient id="paint26_linear_8498_66922" x1="517.806" y1="526.119" x2="664.589" y2="526.119" gradientUnits="userSpaceOnUse">
<stop stop-color="#E9E9FD"/>
<stop offset="0.36" stop-color="#D3D2F9"/>
<stop offset="0.71" stop-color="#C5C4F7"/>
<stop offset="1" stop-color="#C0BFF6"/>
</linearGradient>
<linearGradient id="paint27_linear_8498_66922" x1="532.415" y1="414.978" x2="648.882" y2="482.228" gradientUnits="userSpaceOnUse">
<stop stop-color="#BCBEFF"/>
<stop offset="0.23" stop-color="#AAADF8"/>
<stop offset="0.68" stop-color="#7C83E5"/>
<stop offset="1" stop-color="#5761D7"/>
</linearGradient>
<linearGradient id="paint28_linear_8498_66922" x1="517.807" y1="440.395" x2="664.59" y2="440.395" gradientUnits="userSpaceOnUse">
<stop stop-color="#E9E9FD"/>
<stop offset="0.36" stop-color="#D3D2F9"/>
<stop offset="0.71" stop-color="#C5C4F7"/>
<stop offset="1" stop-color="#C0BFF6"/>
</linearGradient>
<clipPath id="clip0_8498_66922">
<rect width="760" height="581" fill="white" transform="translate(0.294922)"/>
</clipPath>
</defs>
</svg>
