<svg width="52" height="51" viewBox="0 0 52 51" fill="none" xmlns="http://www.w3.org/2000/svg">
<g id="Group 7415">
<circle id="Ellipse 87" cx="25.8654" cy="25.3654" r="25.3654" fill="#0061E6" fill-opacity="0.1"/>
<path id="Vector" d="M37.3051 17.0329C37.1485 16.8739 36.9623 16.7478 36.757 16.6617C36.5518 16.5756 36.3317 16.5312 36.1094 16.5312C35.8871 16.5312 35.667 16.5756 35.4618 16.6617C35.2566 16.7478 35.0703 16.8739 34.9138 17.0329L22.3678 29.6834L17.0968 24.3586C16.9342 24.2005 16.7424 24.0762 16.5321 23.9928C16.3218 23.9093 16.0973 23.8684 15.8713 23.8723C15.6454 23.8763 15.4224 23.925 15.2151 24.0157C15.0079 24.1064 14.8204 24.2374 14.6634 24.401C14.5063 24.5647 14.3829 24.7579 14.3 24.9697C14.2172 25.1814 14.1765 25.4075 14.1804 25.635C14.1843 25.8626 14.2327 26.0871 14.3228 26.2958C14.4129 26.5045 14.5429 26.6933 14.7055 26.8514L21.1721 33.3632C21.3287 33.5222 21.5149 33.6483 21.7201 33.7344C21.9253 33.8205 22.1455 33.8649 22.3678 33.8649C22.5901 33.8649 22.8102 33.8205 23.0154 33.7344C23.2206 33.6483 23.4069 33.5222 23.5634 33.3632L37.3051 19.5257C37.476 19.3669 37.6124 19.1741 37.7057 18.9596C37.799 18.7451 37.8472 18.5135 37.8472 18.2793C37.8472 18.0451 37.799 17.8134 37.7057 17.5989C37.6124 17.3844 37.476 17.1917 37.3051 17.0329Z" fill="#0061E6"/>
</g>
</svg>
