<svg width="208" height="56" viewBox="0 0 208 56" fill="none" xmlns="http://www.w3.org/2000/svg">
<path d="M76.7333 14.7029C76.7333 15.7884 76.4004 16.6578 75.7446 17.3062C74.9907 18.0748 74.0087 18.4615 72.8053 18.4615C71.6553 18.4615 70.6733 18.0683 69.8677 17.2932C69.0605 16.5067 68.6577 15.5414 68.6577 14.386C68.6577 13.2307 69.0605 12.2654 69.8677 11.4854C70.6733 10.7038 71.6553 10.3105 72.8053 10.3105C73.3779 10.3105 73.9238 10.4259 74.4447 10.6404C74.964 10.8565 75.3868 11.149 75.693 11.5098L74.9973 12.1955C74.4631 11.5797 73.7357 11.2758 72.8053 11.2758C71.9665 11.2758 71.2392 11.5618 70.6217 12.1387C70.0109 12.7172 69.7046 13.4663 69.7046 14.386C69.7046 15.3058 70.0109 16.0614 70.6217 16.6399C71.2392 17.2103 71.9665 17.5028 72.8053 17.5028C73.6958 17.5028 74.4448 17.2103 75.0356 16.6334C75.4251 16.2515 75.6464 15.725 75.7047 15.0523H72.8053V14.113H76.6733C76.7199 14.3162 76.7333 14.5128 76.7333 14.7029Z" fill="white" stroke="white" stroke-width="0.16" stroke-miterlimit="10"/>
<path d="M82.8699 11.4474H79.2366V13.9174H82.5121V14.8566H79.2366V17.3266H82.8699V18.2837H78.208V10.4902H82.8699V11.4474Z" fill="white" stroke="white" stroke-width="0.16" stroke-miterlimit="10"/>
<path d="M87.2005 18.2837H86.172V11.4474H83.9434V10.4902H89.4308V11.4474H87.2005V18.2837Z" fill="white" stroke="white" stroke-width="0.16" stroke-miterlimit="10"/>
<path d="M93.4019 18.2837V10.4902H94.4288V18.2837H93.4019Z" fill="white" stroke="white" stroke-width="0.16" stroke-miterlimit="10"/>
<path d="M98.9808 18.2837H97.9605V11.4474H95.7236V10.4902H101.218V11.4474H98.9808V18.2837Z" fill="white" stroke="white" stroke-width="0.16" stroke-miterlimit="10"/>
<path d="M111.607 17.2802C110.82 18.0683 109.845 18.4615 108.681 18.4615C107.511 18.4615 106.536 18.0683 105.748 17.2802C104.963 16.4937 104.572 15.5284 104.572 14.386C104.572 13.2437 104.963 12.2784 105.748 11.4919C106.536 10.7038 107.511 10.3105 108.681 10.3105C109.838 10.3105 110.813 10.7038 111.6 11.4984C112.393 12.2914 112.784 13.2502 112.784 14.386C112.784 15.5284 112.393 16.4937 111.607 17.2802ZM106.509 16.6269C107.102 17.2103 107.822 17.5028 108.681 17.5028C109.533 17.5028 110.261 17.2103 110.846 16.6269C111.437 16.0435 111.737 15.2944 111.737 14.386C111.737 13.4777 111.437 12.7285 110.846 12.1452C110.261 11.5618 109.533 11.2693 108.681 11.2693C107.822 11.2693 107.102 11.5618 106.509 12.1452C105.918 12.7285 105.619 13.4777 105.619 14.386C105.619 15.2944 105.918 16.0435 106.509 16.6269Z" fill="white" stroke="white" stroke-width="0.16" stroke-miterlimit="10"/>
<path d="M114.227 18.2837V10.4902H115.475L119.356 16.5515H119.401L119.356 15.0532V10.4902H120.383V18.2837H119.311L115.247 11.9235H115.202L115.247 13.4282V18.2837H114.227Z" fill="white" stroke="white" stroke-width="0.16" stroke-miterlimit="10"/>
<path d="M104.319 29.665C101.191 29.665 98.6365 31.9888 98.6365 35.1949C98.6365 38.375 101.191 40.7231 104.319 40.7231C107.453 40.7231 110.008 38.375 110.008 35.1949C110.008 31.9888 107.453 29.665 104.319 29.665ZM104.319 38.5456C102.603 38.5456 101.126 37.1628 101.126 35.1949C101.126 33.201 102.603 31.8425 104.319 31.8425C106.035 31.8425 107.518 33.201 107.518 35.1949C107.518 37.1628 106.035 38.5456 104.319 38.5456ZM91.9208 29.665C88.7867 29.665 86.2386 31.9888 86.2386 35.1949C86.2386 38.375 88.7867 40.7231 91.9208 40.7231C95.0531 40.7231 97.6029 38.375 97.6029 35.1949C97.6029 31.9888 95.0531 29.665 91.9208 29.665ZM91.9208 38.5456C90.2031 38.5456 88.7218 37.1628 88.7218 35.1949C88.7218 33.201 90.2031 31.8425 91.9208 31.8425C93.6367 31.8425 95.113 33.201 95.113 35.1949C95.113 37.1628 93.6367 38.5456 91.9208 38.5456ZM77.1677 31.3599V33.7096H82.9148C82.7467 35.0226 82.2973 35.9879 81.6083 36.6606C80.7694 37.4731 79.4629 38.375 77.1677 38.375C73.6309 38.375 70.8614 35.5881 70.8614 32.135C70.8614 28.6819 73.6309 25.895 77.1677 25.895C79.0801 25.895 80.4715 26.6246 81.4984 27.5704L83.1944 25.9145C81.7581 24.5755 79.8474 23.5469 77.1677 23.5469C72.3178 23.5469 68.2417 27.3998 68.2417 32.135C68.2417 36.8703 72.3178 40.7231 77.1677 40.7231C79.7891 40.7231 81.7581 39.8846 83.306 38.3116C84.8921 36.763 85.3864 34.5855 85.3864 32.8273C85.3864 32.2813 85.3398 31.7791 85.2566 31.3599H77.1677ZM137.495 33.1815C137.027 31.9449 135.584 29.665 132.645 29.665C129.732 29.665 127.307 31.9059 127.307 35.1949C127.307 38.2921 129.707 40.7231 132.924 40.7231C135.526 40.7231 137.027 39.1745 137.644 38.2726L135.714 37.0165C135.07 37.9363 134.193 38.5456 132.924 38.5456C131.664 38.5456 130.761 37.9818 130.181 36.8703L137.756 33.8104L137.495 33.1815ZM129.772 35.0226C129.707 32.8906 131.468 31.7986 132.73 31.7986C133.718 31.7986 134.557 32.2813 134.837 32.9719L129.772 35.0226ZM123.615 40.3868H126.105V24.1368H123.615V40.3868ZM119.538 30.8968H119.455C118.895 30.25 117.828 29.665 116.477 29.665C113.641 29.665 111.048 32.096 111.048 35.2128C111.048 38.3116 113.641 40.7231 116.477 40.7231C117.828 40.7231 118.895 40.1333 119.455 39.467H119.538V40.26C119.538 42.3741 118.381 43.51 116.515 43.51C114.994 43.51 114.05 42.4375 113.661 41.5356L111.495 42.418C112.12 43.8838 113.772 45.6875 116.515 45.6875C119.435 45.6875 121.898 44.0105 121.898 39.9301V30.0014H119.538V30.8968ZM116.69 38.5456C114.974 38.5456 113.538 37.1433 113.538 35.2128C113.538 33.2644 114.974 31.8425 116.69 31.8425C118.381 31.8425 119.714 33.2644 119.714 35.2128C119.714 37.1433 118.381 38.5456 116.69 38.5456ZM149.152 24.1368H143.197V40.3868H145.68V34.2296H149.152C151.91 34.2296 154.614 32.2813 154.614 29.1824C154.614 26.0851 151.903 24.1368 149.152 24.1368ZM149.217 31.9693H145.68V26.3971H149.217C151.071 26.3971 152.13 27.9003 152.13 29.1824C152.13 30.4401 151.071 31.9693 149.217 31.9693ZM164.567 29.6341C162.773 29.6341 160.907 30.4076 160.14 32.122L162.344 33.0239C162.818 32.122 163.69 31.8295 164.612 31.8295C165.901 31.8295 167.207 32.5851 167.227 33.9193V34.0899C166.778 33.8364 165.816 33.461 164.632 33.461C162.259 33.461 159.841 34.7366 159.841 37.1173C159.841 39.2948 161.785 40.6971 163.97 40.6971C165.641 40.6971 166.563 39.961 167.142 39.1046H167.227V40.3607H169.625V34.1273C169.625 31.2461 167.422 29.6341 164.567 29.6341ZM164.268 38.5391C163.456 38.5391 162.324 38.1459 162.324 37.1628C162.324 35.905 163.735 35.4224 164.957 35.4224C166.05 35.4224 166.563 35.658 167.227 35.9684C167.032 37.4731 165.706 38.5391 164.268 38.5391ZM178.363 29.99L175.509 37.0344H175.424L172.473 29.99H169.795L174.229 39.8343L171.699 45.3121H174.294L181.126 29.99H178.363ZM155.979 40.3868H158.469V24.1368H155.979V40.3868Z" fill="white"/>
<path d="M27.491 11.1862C27.0999 11.5859 26.8735 12.2083 26.8735 13.0143V41.7638C26.8735 42.5698 27.0999 43.1922 27.491 43.5919L27.5876 43.6797L44.0882 27.5759V27.1957L27.5876 11.0919L27.491 11.1862Z" fill="url(#paint0_linear_3687_7825)"/>
<path d="M49.5825 32.9473L44.0884 27.5766V27.1964L49.5891 21.8258L49.7123 21.8956L56.2267 25.5145C58.0858 26.5415 58.0858 28.2315 56.2267 29.265L49.7123 32.8774L49.5825 32.9473Z" fill="url(#paint1_linear_3687_7825)"/>
<path d="M49.7123 32.877L44.0884 27.3861L27.4912 43.5922C28.1087 44.2259 29.1156 44.3023 30.2607 43.6686L49.7123 32.877Z" fill="url(#paint2_linear_3687_7825)"/>
<path d="M49.7123 21.8958L30.2607 11.1042C29.1156 10.477 28.1087 10.5533 27.4912 11.1871L44.0884 27.3867L49.7123 21.8958Z" fill="url(#paint3_linear_3687_7825)"/>
<rect x="0.5" y="0.5" width="207" height="55" rx="27.5" stroke="white"/>
<defs>
<linearGradient id="paint0_linear_3687_7825" x1="42.6231" y1="42.0632" x2="20.8122" y2="19.7238" gradientUnits="userSpaceOnUse">
<stop stop-color="#00A0FF"/>
<stop offset="0.0066" stop-color="#00A1FF"/>
<stop offset="0.2601" stop-color="#00BEFF"/>
<stop offset="0.5122" stop-color="#00D2FF"/>
<stop offset="0.7604" stop-color="#00DFFF"/>
<stop offset="1" stop-color="#00E3FF"/>
</linearGradient>
<linearGradient id="paint1_linear_3687_7825" x1="58.6475" y1="27.3847" x2="26.4294" y2="27.3847" gradientUnits="userSpaceOnUse">
<stop stop-color="#FFE000"/>
<stop offset="0.4087" stop-color="#FFBD00"/>
<stop offset="0.7754" stop-color="#FFA500"/>
<stop offset="1" stop-color="#FF9C00"/>
</linearGradient>
<linearGradient id="paint2_linear_3687_7825" x1="46.6542" y1="24.4011" x2="17.0769" y2="-5.89285" gradientUnits="userSpaceOnUse">
<stop stop-color="#FF3A44"/>
<stop offset="1" stop-color="#C31162"/>
</linearGradient>
<linearGradient id="paint3_linear_3687_7825" x1="23.3134" y1="53.1577" x2="36.521" y2="39.6302" gradientUnits="userSpaceOnUse">
<stop stop-color="#32A071"/>
<stop offset="0.0685" stop-color="#2DA771"/>
<stop offset="0.4762" stop-color="#15CF74"/>
<stop offset="0.8009" stop-color="#06E775"/>
<stop offset="1" stop-color="#00F076"/>
</linearGradient>
</defs>
</svg>
