<svg width="208" height="56" viewBox="0 0 208 56" fill="none" xmlns="http://www.w3.org/2000/svg">
<path d="M54.2056 26.6586C54.167 22.4687 57.7243 20.4303 57.8869 20.3354C55.8723 17.4715 52.7496 17.0802 51.6523 17.049C49.0296 16.7799 46.4856 18.5791 45.1496 18.5791C43.7869 18.5791 41.7296 17.075 39.5123 17.1192C36.6589 17.1621 33.9896 18.7728 32.5256 21.274C29.5043 26.3739 31.7576 33.8684 34.6523 37.9907C36.1003 40.0096 37.7923 42.2638 40.0069 42.1845C42.1736 42.0974 42.9829 40.8377 45.5976 40.8377C48.1883 40.8377 48.9483 42.1845 51.2069 42.1338C53.5323 42.0974 54.9963 40.1058 56.3936 38.0687C58.0669 35.7547 58.7389 33.4758 58.7656 33.3588C58.7109 33.3406 54.2496 31.6805 54.2056 26.6586Z" fill="white"/>
<path d="M49.9389 14.3372C51.1043 12.9163 51.9016 10.9832 51.6803 9.02148C49.9936 9.09428 47.8843 10.159 46.6696 11.5487C45.5949 12.7733 44.6349 14.7805 44.8829 16.6681C46.7776 16.8059 48.7229 15.736 49.9389 14.3372Z" fill="white"/>
<path d="M85.5615 41.8942H82.5335L80.8749 36.8125H75.1095L73.5295 41.8942H70.5815L76.2935 24.5938H79.8215L85.5615 41.8942ZM80.3749 34.6805L78.8749 30.163C78.7162 29.7015 78.4189 28.6147 77.9802 26.9039H77.9269C77.7522 27.6397 77.4709 28.7265 77.0842 30.163L75.6109 34.6805H80.3749Z" fill="white"/>
<path d="M100.251 35.5022C100.251 37.6238 99.663 39.3008 98.487 40.5319C97.4337 41.6278 96.1257 42.1751 94.5644 42.1751C92.879 42.1751 91.6684 41.5849 90.931 40.4045H90.8777V46.976H88.035V33.5249C88.035 32.1911 87.999 30.8222 87.9297 29.4182H90.4297L90.5884 31.3955H90.6417C91.5897 29.9057 93.0284 29.1621 94.959 29.1621C96.4684 29.1621 97.7284 29.7432 98.7364 30.9067C99.747 32.0715 100.251 33.6029 100.251 35.5022ZM97.355 35.6036C97.355 34.3894 97.075 33.3884 96.5124 32.6006C95.8977 31.779 95.0724 31.3682 94.0377 31.3682C93.3364 31.3682 92.699 31.597 92.1297 32.0481C91.559 32.5031 91.1857 33.0972 91.011 33.833C90.923 34.1762 90.879 34.457 90.879 34.678V36.758C90.879 37.6654 91.1644 38.4311 91.735 39.0564C92.3057 39.6817 93.047 39.9937 93.959 39.9937C95.0297 39.9937 95.863 39.5907 96.459 38.7873C97.0564 37.9826 97.355 36.9218 97.355 35.6036Z" fill="white"/>
<path d="M114.967 35.5022C114.967 37.6238 114.379 39.3008 113.202 40.5319C112.15 41.6278 110.842 42.1751 109.28 42.1751C107.595 42.1751 106.384 41.5849 105.648 40.4045H105.595V46.976H102.752V33.5249C102.752 32.1911 102.716 30.8222 102.647 29.4182H105.147L105.306 31.3955H105.359C106.306 29.9057 107.744 29.1621 109.676 29.1621C111.184 29.1621 112.444 29.7432 113.455 30.9067C114.462 32.0715 114.967 33.6029 114.967 35.5022ZM112.071 35.6036C112.071 34.3894 111.79 33.3884 111.227 32.6006C110.612 31.779 109.79 31.3682 108.754 31.3682C108.051 31.3682 107.415 31.597 106.844 32.0481C106.274 32.5031 105.902 33.0972 105.727 33.833C105.64 34.1762 105.595 34.457 105.595 34.678V36.758C105.595 37.6654 105.88 38.4311 106.448 39.0564C107.019 39.6804 107.76 39.9937 108.675 39.9937C109.746 39.9937 110.579 39.5907 111.175 38.7873C111.772 37.9826 112.071 36.9218 112.071 35.6036Z" fill="white"/>
<path d="M131.42 37.0421C131.42 38.5137 130.896 39.711 129.844 40.6353C128.688 41.6454 127.079 42.1498 125.011 42.1498C123.101 42.1498 121.571 41.791 120.412 41.0721L121.071 38.762C122.319 39.4978 123.688 39.867 125.18 39.867C126.251 39.867 127.084 39.6304 127.683 39.1598C128.279 38.6892 128.576 38.0574 128.576 37.2696C128.576 36.5676 128.331 35.9761 127.839 35.4964C127.349 35.0167 126.532 34.5708 125.391 34.1587C122.284 33.029 120.732 31.3741 120.732 29.1979C120.732 27.7757 121.276 26.6096 122.365 25.7022C123.451 24.7935 124.899 24.3398 126.709 24.3398C128.324 24.3398 129.665 24.6141 130.736 25.1614L130.025 27.4208C129.025 26.8904 127.895 26.6252 126.629 26.6252C125.629 26.6252 124.848 26.8657 124.288 27.3441C123.815 27.7718 123.577 28.2931 123.577 28.9106C123.577 29.5944 123.848 30.1599 124.392 30.6045C124.865 31.0153 125.725 31.4599 126.973 31.9396C128.5 32.5389 129.621 33.2396 130.343 34.043C131.061 34.8438 131.42 35.8461 131.42 37.0421Z" fill="white"/>
<path d="M140.819 31.4988H137.686V37.5555C137.686 39.096 138.238 39.8656 139.344 39.8656C139.852 39.8656 140.274 39.8227 140.607 39.7369L140.686 41.8416C140.126 42.0457 139.388 42.1484 138.475 42.1484C137.352 42.1484 136.475 41.8143 135.842 41.1474C135.211 40.4792 134.894 39.3586 134.894 37.7843V31.4962H133.027V29.4162H134.894V27.1321L137.686 26.3105V29.4162H140.819V31.4988Z" fill="white"/>
<path d="M154.956 35.5536C154.956 37.4711 154.394 39.0454 153.271 40.2765C152.094 41.544 150.531 42.1758 148.583 42.1758C146.706 42.1758 145.211 41.5687 144.096 40.3545C142.982 39.1403 142.424 37.6076 142.424 35.7603C142.424 33.8272 142.998 32.2438 144.148 31.0127C145.296 29.7803 146.846 29.1641 148.794 29.1641C150.671 29.1641 152.182 29.7712 153.322 30.9867C154.412 32.1658 154.956 33.6881 154.956 35.5536ZM152.007 35.6433C152.007 34.4928 151.755 33.5061 151.244 32.6832C150.648 31.6874 149.796 31.1908 148.692 31.1908C147.55 31.1908 146.682 31.6887 146.086 32.6832C145.575 33.5074 145.323 34.5097 145.323 35.6953C145.323 36.8458 145.575 37.8325 146.086 38.6541C146.7 39.6499 147.559 40.1465 148.667 40.1465C149.752 40.1465 150.604 39.6395 151.219 38.6281C151.743 37.7896 152.007 36.7925 152.007 35.6433Z" fill="white"/>
<path d="M164.196 31.8557C163.915 31.805 163.615 31.779 163.3 31.779C162.3 31.779 161.527 32.1469 160.983 32.884C160.51 33.534 160.272 34.3556 160.272 35.3475V41.893H157.431L157.458 33.3468C157.458 31.909 157.422 30.5999 157.351 29.4195H159.827L159.931 31.8063H160.01C160.31 30.986 160.783 30.3256 161.431 29.8303C162.064 29.3844 162.748 29.1621 163.486 29.1621C163.748 29.1621 163.986 29.1803 164.196 29.2128V31.8557Z" fill="white"/>
<path d="M176.91 35.0654C176.91 35.562 176.876 35.9806 176.806 36.3225H168.278C168.311 37.5549 168.723 38.4974 169.515 39.1474C170.234 39.7285 171.163 40.0197 172.304 40.0197C173.567 40.0197 174.719 39.8234 175.755 39.4295L176.2 41.3535C174.99 41.8683 173.56 42.1244 171.911 42.1244C169.927 42.1244 168.37 41.555 167.236 40.4175C166.106 39.28 165.539 37.7525 165.539 35.8363C165.539 33.9552 166.066 32.3887 167.12 31.1394C168.224 29.8056 169.716 29.1387 171.594 29.1387C173.438 29.1387 174.834 29.8056 175.782 31.1394C176.532 32.1989 176.91 33.5093 176.91 35.0654ZM174.199 34.3465C174.218 33.5249 174.032 32.8151 173.647 32.2158C173.155 31.4449 172.399 31.0601 171.382 31.0601C170.452 31.0601 169.696 31.4358 169.119 32.1898C168.646 32.7891 168.364 33.508 168.278 34.3452H174.199V34.3465Z" fill="white"/>
<path d="M79.4349 13.9517C79.4349 15.4818 78.9642 16.6336 78.0242 17.4071C77.1535 18.1208 75.9162 18.4783 74.3135 18.4783C73.5189 18.4783 72.8389 18.4445 72.2695 18.3769V10.0166C73.0122 9.89964 73.8122 9.83984 74.6762 9.83984C76.2029 9.83984 77.3535 10.1635 78.1295 10.8109C78.9989 11.5428 79.4349 12.5893 79.4349 13.9517ZM77.9615 13.9894C77.9615 12.9975 77.6922 12.237 77.1535 11.7066C76.6149 11.1775 75.8282 10.9123 74.7922 10.9123C74.3522 10.9123 73.9775 10.9409 73.6669 11.0007V17.3564C73.8389 17.3824 74.1535 17.3941 74.6109 17.3941C75.6802 17.3941 76.5055 17.1042 77.0869 16.5244C77.6682 15.9446 77.9615 15.0996 77.9615 13.9894Z" fill="white"/>
<path d="M87.2468 15.2886C87.2468 16.2311 86.9708 17.0033 86.4188 17.6091C85.8402 18.2318 85.0735 18.5425 84.1162 18.5425C83.1935 18.5425 82.4588 18.2448 81.9108 17.6468C81.3642 17.0501 81.0908 16.2974 81.0908 15.39C81.0908 14.441 81.3722 13.6623 81.9375 13.0578C82.5028 12.4533 83.2628 12.1504 84.2202 12.1504C85.1428 12.1504 85.8842 12.4481 86.4455 13.0448C86.9788 13.6246 87.2468 14.3734 87.2468 15.2886ZM85.7975 15.3328C85.7975 14.7673 85.6722 14.2824 85.4228 13.8781C85.1295 13.3893 84.7122 13.1449 84.1695 13.1449C83.6082 13.1449 83.1815 13.3893 82.8882 13.8781C82.6375 14.2824 82.5135 14.7751 82.5135 15.3575C82.5135 15.923 82.6388 16.4079 82.8882 16.8122C83.1908 17.301 83.6122 17.5454 84.1562 17.5454C84.6895 17.5454 85.1082 17.2971 85.4095 16.7992C85.6682 16.3871 85.7975 15.8983 85.7975 15.3328Z" fill="white"/>
<path d="M97.7214 12.2754L95.7547 18.4036H94.4747L93.6601 15.7425C93.4534 15.0782 93.2854 14.4178 93.1547 13.7626H93.1294C93.0081 14.436 92.8401 15.0951 92.6241 15.7425L91.7587 18.4036H90.4641L88.6147 12.2754H90.0507L90.7614 15.1887C90.9334 15.8777 91.0747 16.5342 91.1881 17.1556H91.2134C91.3174 16.6434 91.4894 15.9908 91.7321 15.2017L92.6241 12.2767H93.7627L94.6174 15.1393C94.8241 15.8374 94.9921 16.5095 95.1214 17.1569H95.1601C95.2547 16.5264 95.3974 15.8543 95.5867 15.1393L96.3494 12.2767H97.7214V12.2754Z" fill="white"/>
<path d="M104.965 18.4034H103.568V14.8934C103.568 13.8118 103.147 13.271 102.301 13.271C101.887 13.271 101.552 13.4192 101.292 13.7169C101.035 14.0146 100.904 14.3656 100.904 14.7673V18.4021H99.5067V14.0263C99.5067 13.4881 99.4894 12.9044 99.4561 12.2726H100.684L100.749 13.2307H100.788C100.951 12.933 101.193 12.6873 101.512 12.491C101.891 12.2622 102.315 12.1465 102.779 12.1465C103.365 12.1465 103.853 12.3311 104.241 12.7016C104.724 13.1553 104.965 13.8326 104.965 14.7322V18.4034Z" fill="white"/>
<path d="M108.819 18.403H107.423V9.46289H108.819V18.403Z" fill="white"/>
<path d="M117.046 15.2886C117.046 16.2311 116.77 17.0033 116.218 17.6091C115.639 18.2318 114.871 18.5425 113.915 18.5425C112.991 18.5425 112.256 18.2448 111.71 17.6468C111.163 17.0501 110.89 16.2974 110.89 15.39C110.89 14.441 111.171 13.6623 111.736 13.0578C112.302 12.4533 113.062 12.1504 114.018 12.1504C114.942 12.1504 115.682 12.4481 116.244 13.0448C116.778 13.6246 117.046 14.3734 117.046 15.2886ZM115.595 15.3328C115.595 14.7673 115.47 14.2824 115.22 13.8781C114.928 13.3893 114.51 13.1449 113.968 13.1449C113.406 13.1449 112.979 13.3893 112.687 13.8781C112.436 14.2824 112.312 14.7751 112.312 15.3575C112.312 15.923 112.438 16.4079 112.687 16.8122C112.99 17.301 113.411 17.5454 113.955 17.5454C114.488 17.5454 114.906 17.2971 115.207 16.7992C115.467 16.3871 115.595 15.8983 115.595 15.3328Z" fill="white"/>
<path d="M123.808 18.4034H122.554L122.45 17.6975H122.411C121.982 18.2604 121.37 18.5425 120.575 18.5425C119.982 18.5425 119.502 18.3566 119.14 17.9874C118.812 17.652 118.648 17.2347 118.648 16.7394C118.648 15.9906 118.968 15.4199 119.612 15.0247C120.255 14.6295 121.159 14.4358 122.323 14.4449V14.3305C122.323 13.5232 121.888 13.1202 121.018 13.1202C120.398 13.1202 119.851 13.2723 119.379 13.5739L119.095 12.6795C119.679 12.3272 120.4 12.1504 121.251 12.1504C122.894 12.1504 123.718 12.9954 123.718 14.6854V16.9422C123.718 17.5545 123.748 18.042 123.808 18.4034ZM122.358 16.2974V15.3523C120.816 15.3263 120.046 15.7384 120.046 16.5873C120.046 16.9071 120.134 17.1463 120.314 17.3062C120.494 17.4661 120.723 17.5454 120.996 17.5454C121.303 17.5454 121.59 17.4505 121.851 17.262C122.114 17.0722 122.275 16.8317 122.335 16.5366C122.35 16.4703 122.358 16.3897 122.358 16.2974Z" fill="white"/>
<path d="M131.748 18.403H130.508L130.443 17.4189H130.404C130.008 18.1677 129.333 18.5421 128.385 18.5421C127.628 18.5421 126.997 18.2522 126.497 17.6724C125.997 17.0926 125.748 16.3399 125.748 15.4156C125.748 14.4237 126.019 13.6203 126.563 13.0067C127.089 12.4347 127.735 12.1487 128.503 12.1487C129.347 12.1487 129.937 12.4256 130.273 12.9807H130.3V9.46289H131.699V16.752C131.699 17.3487 131.715 17.8986 131.748 18.403ZM130.3 15.8186V14.7968C130.3 14.62 130.287 14.477 130.261 14.3678C130.183 14.0402 130.013 13.7646 129.756 13.5423C129.496 13.32 129.183 13.2082 128.821 13.2082C128.3 13.2082 127.892 13.4097 127.592 13.814C127.295 14.2183 127.144 14.7344 127.144 15.3649C127.144 15.9707 127.287 16.4621 127.573 16.8404C127.876 17.2434 128.284 17.4449 128.795 17.4449C129.253 17.4449 129.62 17.2772 129.899 16.9405C130.168 16.6298 130.3 16.2554 130.3 15.8186Z" fill="white"/>
<path d="M143.699 15.2886C143.699 16.2311 143.423 17.0033 142.871 17.6091C142.292 18.2318 141.527 18.5425 140.568 18.5425C139.647 18.5425 138.912 18.2448 138.363 17.6468C137.816 17.0501 137.543 16.2974 137.543 15.39C137.543 14.441 137.824 13.6623 138.39 13.0578C138.955 12.4533 139.715 12.1504 140.674 12.1504C141.595 12.1504 142.338 12.4481 142.898 13.0448C143.431 13.6246 143.699 14.3734 143.699 15.2886ZM142.251 15.3328C142.251 14.7673 142.126 14.2824 141.876 13.8781C141.582 13.3893 141.166 13.1449 140.622 13.1449C140.062 13.1449 139.635 13.3893 139.34 13.8781C139.09 14.2824 138.966 14.7751 138.966 15.3575C138.966 15.923 139.091 16.4079 139.34 16.8122C139.643 17.301 140.064 17.5454 140.608 17.5454C141.142 17.5454 141.562 17.2971 141.863 16.7992C142.12 16.3871 142.251 15.8983 142.251 15.3328Z" fill="white"/>
<path d="M151.212 18.4034H149.816V14.8934C149.816 13.8118 149.395 13.271 148.548 13.271C148.133 13.271 147.799 13.4192 147.54 13.7169C147.281 14.0146 147.152 14.3656 147.152 14.7673V18.4021H145.753V14.0263C145.753 13.4881 145.737 12.9044 145.704 12.2726H146.931L146.996 13.2307H147.035C147.199 12.933 147.441 12.6873 147.759 12.491C148.139 12.2622 148.561 12.1465 149.027 12.1465C149.612 12.1465 150.1 12.3311 150.488 12.7016C150.972 13.1553 151.212 13.8326 151.212 14.7322V18.4034Z" fill="white"/>
<path d="M160.616 13.2947H159.077V16.2717C159.077 17.0283 159.351 17.4066 159.892 17.4066C160.143 17.4066 160.351 17.3858 160.515 17.3429L160.551 18.3764C160.275 18.4778 159.912 18.5285 159.465 18.5285C158.913 18.5285 158.484 18.3647 158.173 18.0371C157.861 17.7095 157.707 17.1583 157.707 16.3848V13.2947H156.788V12.2742H157.707V11.151L159.076 10.748V12.2729H160.615V13.2947H160.616Z" fill="white"/>
<path d="M168.013 18.403H166.615V14.919C166.615 13.8205 166.193 13.2706 165.349 13.2706C164.701 13.2706 164.259 13.5891 164.016 14.2261C163.975 14.36 163.951 14.5238 163.951 14.7162V18.4017H162.555V9.46289H163.951V13.1562H163.977C164.417 12.4841 165.048 12.1487 165.865 12.1487C166.444 12.1487 166.923 12.3333 167.303 12.7038C167.776 13.1653 168.013 13.8517 168.013 14.7591V18.403Z" fill="white"/>
<path d="M175.644 15.0494C175.644 15.2938 175.625 15.4992 175.592 15.6669H171.401C171.42 16.2727 171.62 16.7342 172.008 17.054C172.363 17.34 172.82 17.483 173.38 17.483C174 17.483 174.565 17.3868 175.075 17.1931L175.293 18.1395C174.697 18.3917 173.996 18.5178 173.184 18.5178C172.211 18.5178 171.444 18.2383 170.889 17.6793C170.332 17.1203 170.056 16.3702 170.056 15.429C170.056 14.5047 170.313 13.7351 170.832 13.1215C171.373 12.4663 172.105 12.1387 173.029 12.1387C173.933 12.1387 174.62 12.4663 175.084 13.1215C175.459 13.6415 175.644 14.285 175.644 15.0494ZM174.311 14.6971C174.321 14.2928 174.229 13.9444 174.04 13.6506C173.797 13.2723 173.428 13.0825 172.928 13.0825C172.472 13.0825 172.1 13.2671 171.816 13.6376C171.584 13.9327 171.447 14.285 171.401 14.6971H174.311Z" fill="white"/>
<rect x="0.5" y="0.5" width="207" height="55" rx="27.5" stroke="white"/>
</svg>
