<svg width="49" height="49" viewBox="0 0 49 49" fill="none" xmlns="http://www.w3.org/2000/svg">
<circle cx="24.5" cy="24.75" r="23.5" stroke="#1B2136"/>
<circle cx="24.5" cy="24.75" r="19.5" fill="#10152B"/>
<g clip-path="url(#clip0_3687_33213)">
<path d="M12.6258 34.6978C12.7569 34.8867 12.9725 34.9999 13.2032 34.9999H35.7967C36.0275 34.9999 36.243 34.8867 36.3742 34.6978C36.506 34.5083 36.5362 34.2666 36.4552 34.0504C36.1813 33.3177 35.6691 32.675 35.461 32.4333C35.3278 32.2775 35.1328 32.1875 34.9274 32.1875H14.0725C13.8672 32.1875 13.6722 32.2775 13.539 32.4333C13.331 32.675 12.8187 33.3177 12.5447 34.0504C12.4637 34.2666 12.4939 34.5083 12.6258 34.6978Z" fill="#0061E6"/>
<path d="M15.3125 22.2969H19.5781V30.7812H15.3125V22.2969Z" fill="#0061E6"/>
<path d="M22.3906 22.2969H26.6094V30.7812H22.3906V22.2969Z" fill="#0061E6"/>
<path d="M29.4219 22.2969H33.6875V30.7812H29.4219V22.2969Z" fill="#0061E6"/>
<path d="M14.0219 20.6836C14.1539 20.8161 14.3376 20.8906 14.5193 20.8906C14.5194 20.8906 14.5195 20.8905 14.5196 20.8905C14.5197 20.8905 14.5198 20.8906 14.5199 20.8902H34.48C34.4801 20.8906 34.4803 20.8905 34.4803 20.8905C34.4804 20.8905 34.4806 20.8906 34.4807 20.8906C34.6624 20.8906 34.8461 20.8161 34.9781 20.6836C35.1211 20.5405 36.1903 19.427 36.4999 18.0781H12.5C12.8096 19.427 13.8788 20.5405 14.0219 20.6836Z" fill="#0061E6"/>
<path d="M36.0527 16.6719L24.8147 11.0741C24.617 10.9753 24.3835 10.9753 24.1858 11.0741L12.9478 16.6719H36.0527Z" fill="#0061E6"/>
</g>
<defs>
<clipPath id="clip0_3687_33213">
<rect width="24" height="24" fill="white" transform="translate(12.5 11)"/>
</clipPath>
</defs>
</svg>
