<svg width="49" height="49" viewBox="0 0 49 49" fill="none" xmlns="http://www.w3.org/2000/svg">
<circle cx="24.5" cy="24.75" r="23.5" stroke="#1B2136"/>
<circle cx="24.5" cy="24.75" r="19.5" fill="#10152B"/>
<path d="M15.5 25.6904V15.6957C15.5 15.6363 15.544 15.5861 15.6029 15.5784L19.0702 15.1241C21.4108 14.8174 22.894 17.5616 21.3551 19.3517L15.8078 25.8045C15.7019 25.9277 15.5 25.8528 15.5 25.6904Z" fill="#FFA416"/>
<path d="M17.3296 26.0206L26.9296 16.0368C27.1526 15.8049 27.4605 15.6738 27.7822 15.6738H33.2042C33.5217 15.6738 33.6794 16.0589 33.453 16.2816L24.2953 25.2905L33.5414 35.6198C33.746 35.8483 33.5837 36.2112 33.277 36.2112H28.544C28.2264 36.2112 27.9221 36.0835 27.6997 35.8568L20.3701 28.3862V34.5555C20.3701 34.7961 20.3262 35.0403 20.1883 35.2374C19.187 36.6679 16.6553 36.3049 15.8704 34.9839C15.7752 34.8238 15.7435 34.6363 15.737 34.4502L15.5999 30.5421C15.5411 28.863 16.1651 27.2317 17.3296 26.0206Z" fill="#FFA416"/>
</svg>
