<svg width="88" height="88" viewBox="0 0 88 88" fill="none" xmlns="http://www.w3.org/2000/svg">
<path d="M61.6125 67.9033C61.2073 68.323 60.5303 68.3081 60.1439 67.8711L57.8904 65.3223C56.9473 64.2555 55.318 64.1554 54.2512 65.0985C53.1845 66.0417 53.0844 67.671 54.0275 68.7377L58.5437 73.8455C59.703 75.1567 61.734 75.2012 62.9496 73.942L72.468 64.0825C73.4569 63.0581 73.4282 61.426 72.4038 60.4371C71.3795 59.4482 69.7474 59.4769 68.7585 60.5012L61.6125 67.9033Z" fill="white"/>
<path d="M63.4995 45.6039C63.0294 45.6039 62.5633 45.621 62.1008 45.6512L60.6058 20.0615H48.4062V15.0857C48.4061 6.76743 41.6386 0 33.3204 0C25.0021 0 18.2347 6.76743 18.2347 15.0857V20.0615H6.03494L3.32515 66.4461C3.11426 70.0577 4.36517 73.4961 6.84757 76.1277C9.32997 78.7593 12.6895 80.2085 16.3071 80.2085H47.0921C50.9827 84.9612 56.8926 88 63.4995 88C75.1881 88 84.6975 78.4906 84.6975 66.8021C84.6975 55.1133 75.1881 45.6039 63.4995 45.6039ZM23.3908 15.0857C23.3908 9.6106 27.8451 5.15627 33.3202 5.15627C38.7953 5.15627 43.2498 9.6106 43.2498 15.0857V20.0615H23.3908V15.0857ZM16.3071 75.0523C14.1239 75.0523 12.0965 74.1776 10.5984 72.5895C9.10035 71.0013 8.34547 68.9263 8.47266 66.7469L10.8987 25.2179H18.2345V31.6784H23.3908V25.2179H43.2498V31.6784H48.4061V25.2179H55.7419L56.9926 46.6271C48.4777 49.3799 42.3016 57.3828 42.3016 66.8022C42.3016 69.727 42.8971 72.5154 43.9731 75.0524H16.3071V75.0523ZM63.4995 82.8437C54.6541 82.8437 47.4578 75.6475 47.4578 66.8021C47.4578 57.9565 54.6541 50.7602 63.4995 50.7602C72.3449 50.7602 79.5412 57.9565 79.5412 66.8021C79.5412 75.6475 72.3449 82.8437 63.4995 82.8437Z" fill="#FFA416"/>
</svg>
