<svg width="208" height="56" viewBox="0 0 208 56" fill="none" xmlns="http://www.w3.org/2000/svg">
<path d="M54.8379 29.0551C54.7993 24.8652 58.3566 22.8268 58.5193 22.7319C56.5046 19.868 53.3819 19.4767 52.2846 19.4455C49.6619 19.1764 47.1179 20.9756 45.7819 20.9756C44.4193 20.9756 42.3619 19.4715 40.1446 19.5157C37.2913 19.5586 34.6219 21.1693 33.1579 23.6705C30.1366 28.7704 32.3899 36.2649 35.2846 40.3872C36.7326 42.4061 38.4246 44.6603 40.6393 44.581C42.8059 44.4939 43.6153 43.2342 46.2299 43.2342C48.8206 43.2342 49.5806 44.581 51.8393 44.5303C54.1646 44.4939 55.6286 42.5023 57.0259 40.4652C58.6993 38.1512 59.3713 35.8723 59.3979 35.7553C59.3433 35.7371 54.8819 34.077 54.8379 29.0551Z" fill="white"/>
<path d="M50.5713 16.7337C51.7366 15.3128 52.5339 13.3797 52.3126 11.418C50.6259 11.4908 48.5166 12.5555 47.3019 13.9452C46.2273 15.1698 45.2673 17.177 45.5153 19.0646C47.4099 19.2024 49.3553 18.1325 50.5713 16.7337Z" fill="white"/>
<path d="M80.0672 16.3482C80.0672 17.8783 79.5965 19.0301 78.6565 19.8036C77.7859 20.5173 76.5485 20.8748 74.9459 20.8748C74.1512 20.8748 73.4712 20.841 72.9019 20.7734V12.4131C73.6445 12.2961 74.4445 12.2363 75.3085 12.2363C76.8352 12.2363 77.9859 12.56 78.7619 13.2074C79.6312 13.9393 80.0672 14.9858 80.0672 16.3482ZM78.5939 16.3859C78.5939 15.394 78.3245 14.6335 77.7859 14.1031C77.2472 13.574 76.4605 13.3088 75.4245 13.3088C74.9845 13.3088 74.6099 13.3374 74.2992 13.3972V19.7529C74.4712 19.7789 74.7859 19.7906 75.2432 19.7906C76.3125 19.7906 77.1379 19.5007 77.7192 18.9209C78.3005 18.3411 78.5939 17.4961 78.5939 16.3859Z" fill="white"/>
<path d="M87.8792 17.6851C87.8792 18.6276 87.6031 19.3998 87.0511 20.0056C86.4725 20.6283 85.7058 20.939 84.7485 20.939C83.8258 20.939 83.0911 20.6413 82.5431 20.0433C81.9965 19.4466 81.7231 18.6939 81.7231 17.7865C81.7231 16.8375 82.0045 16.0588 82.5698 15.4543C83.1351 14.8498 83.8951 14.5469 84.8525 14.5469C85.7751 14.5469 86.5165 14.8446 87.0778 15.4413C87.6111 16.0211 87.8792 16.7699 87.8792 17.6851ZM86.4298 17.7293C86.4298 17.1638 86.3045 16.6789 86.0551 16.2746C85.7618 15.7858 85.3445 15.5414 84.8018 15.5414C84.2405 15.5414 83.8138 15.7858 83.5205 16.2746C83.2698 16.6789 83.1458 17.1716 83.1458 17.754C83.1458 18.3195 83.2711 18.8044 83.5205 19.2087C83.8231 19.6975 84.2445 19.9419 84.7885 19.9419C85.3218 19.9419 85.7405 19.6936 86.0418 19.1957C86.3005 18.7836 86.4298 18.2948 86.4298 17.7293Z" fill="white"/>
<path d="M98.3537 14.6719L96.3871 20.8001H95.1071L94.2924 18.139C94.0857 17.4747 93.9177 16.8143 93.7871 16.1591H93.7617C93.6404 16.8325 93.4724 17.4916 93.2564 18.139L92.3911 20.8001H91.0964L89.2471 14.6719H90.6831L91.3937 17.5852C91.5657 18.2742 91.7071 18.9307 91.8204 19.5521H91.8457C91.9497 19.0399 92.1217 18.3873 92.3644 17.5982L93.2564 14.6732H94.3951L95.2497 17.5358C95.4564 18.2339 95.6244 18.906 95.7537 19.5534H95.7924C95.8871 18.9229 96.0297 18.2508 96.2191 17.5358L96.9817 14.6732H98.3537V14.6719Z" fill="white"/>
<path d="M105.598 20.7999H104.2V17.2899C104.2 16.2083 103.779 15.6675 102.934 15.6675C102.519 15.6675 102.184 15.8157 101.924 16.1134C101.667 16.4111 101.536 16.7621 101.536 17.1638V20.7986H100.139V16.4228C100.139 15.8846 100.122 15.3009 100.088 14.6691H101.316L101.382 15.6272H101.42C101.583 15.3295 101.826 15.0838 102.144 14.8875C102.523 14.6587 102.947 14.543 103.411 14.543C103.998 14.543 104.486 14.7276 104.874 15.0981C105.356 15.5518 105.598 16.2291 105.598 17.1287V20.7999Z" fill="white"/>
<path d="M109.451 20.7995H108.055V11.8594H109.451V20.7995Z" fill="white"/>
<path d="M117.678 17.6851C117.678 18.6276 117.402 19.3998 116.85 20.0056C116.271 20.6283 115.503 20.939 114.547 20.939C113.623 20.939 112.889 20.6413 112.342 20.0433C111.795 19.4466 111.522 18.6939 111.522 17.7865C111.522 16.8375 111.803 16.0588 112.369 15.4543C112.934 14.8498 113.694 14.5469 114.65 14.5469C115.574 14.5469 116.314 14.8446 116.877 15.4413C117.41 16.0211 117.678 16.7699 117.678 17.6851ZM116.227 17.7293C116.227 17.1638 116.102 16.6789 115.853 16.2746C115.561 15.7858 115.142 15.5414 114.601 15.5414C114.038 15.5414 113.611 15.7858 113.319 16.2746C113.069 16.6789 112.945 17.1716 112.945 17.754C112.945 18.3195 113.07 18.8044 113.319 19.2087C113.622 19.6975 114.043 19.9419 114.587 19.9419C115.121 19.9419 115.538 19.6936 115.839 19.1957C116.099 18.7836 116.227 18.2948 116.227 17.7293Z" fill="white"/>
<path d="M124.441 20.7999H123.186L123.082 20.094H123.043C122.614 20.6569 122.002 20.939 121.207 20.939C120.614 20.939 120.134 20.7531 119.773 20.3839C119.445 20.0485 119.281 19.6312 119.281 19.1359C119.281 18.3871 119.601 17.8164 120.245 17.4212C120.887 17.026 121.791 16.8323 122.955 16.8414V16.727C122.955 15.9197 122.521 15.5167 121.65 15.5167C121.03 15.5167 120.483 15.6688 120.011 15.9704L119.727 15.076C120.311 14.7237 121.033 14.5469 121.883 14.5469C123.526 14.5469 124.35 15.3919 124.35 17.0819V19.3387C124.35 19.951 124.381 20.4385 124.441 20.7999ZM122.99 18.6939V17.7488C121.449 17.7228 120.678 18.1349 120.678 18.9838C120.678 19.3036 120.766 19.5428 120.946 19.7027C121.126 19.8626 121.355 19.9419 121.629 19.9419C121.935 19.9419 122.222 19.847 122.483 19.6585C122.746 19.4687 122.907 19.2282 122.967 18.9331C122.982 18.8668 122.99 18.7862 122.99 18.6939Z" fill="white"/>
<path d="M132.38 20.7995H131.14L131.075 19.8154H131.036C130.64 20.5642 129.966 20.9386 129.018 20.9386C128.26 20.9386 127.63 20.6487 127.13 20.0689C126.63 19.4891 126.38 18.7364 126.38 17.8121C126.38 16.8202 126.651 16.0168 127.195 15.4032C127.722 14.8312 128.367 14.5452 129.135 14.5452C129.979 14.5452 130.57 14.8221 130.906 15.3772H130.932V11.8594H132.331V19.1485C132.331 19.7452 132.347 20.2951 132.38 20.7995ZM130.932 18.2151V17.1933C130.932 17.0165 130.919 16.8735 130.894 16.7643C130.815 16.4367 130.646 16.1611 130.388 15.9388C130.128 15.7165 129.815 15.6047 129.454 15.6047C128.932 15.6047 128.524 15.8062 128.224 16.2105C127.927 16.6148 127.776 17.1309 127.776 17.7614C127.776 18.3672 127.919 18.8586 128.206 19.2369C128.508 19.6399 128.916 19.8414 129.427 19.8414C129.886 19.8414 130.252 19.6737 130.531 19.337C130.8 19.0263 130.932 18.6519 130.932 18.2151Z" fill="white"/>
<path d="M144.331 17.6851C144.331 18.6276 144.055 19.3998 143.503 20.0056C142.925 20.6283 142.159 20.939 141.201 20.939C140.279 20.939 139.545 20.6413 138.995 20.0433C138.449 19.4466 138.175 18.6939 138.175 17.7865C138.175 16.8375 138.457 16.0588 139.022 15.4543C139.587 14.8498 140.347 14.5469 141.306 14.5469C142.227 14.5469 142.97 14.8446 143.53 15.4413C144.063 16.0211 144.331 16.7699 144.331 17.6851ZM142.883 17.7293C142.883 17.1638 142.758 16.6789 142.509 16.2746C142.214 15.7858 141.798 15.5414 141.254 15.5414C140.694 15.5414 140.267 15.7858 139.973 16.2746C139.722 16.6789 139.598 17.1716 139.598 17.754C139.598 18.3195 139.723 18.8044 139.973 19.2087C140.275 19.6975 140.697 19.9419 141.241 19.9419C141.774 19.9419 142.194 19.6936 142.495 19.1957C142.753 18.7836 142.883 18.2948 142.883 17.7293Z" fill="white"/>
<path d="M151.844 20.7999H150.448V17.2899C150.448 16.2083 150.027 15.6675 149.18 15.6675C148.766 15.6675 148.431 15.8157 148.172 16.1134C147.914 16.4111 147.784 16.7621 147.784 17.1638V20.7986H146.386V16.4228C146.386 15.8846 146.37 15.3009 146.336 14.6691H147.563L147.628 15.6272H147.667C147.831 15.3295 148.074 15.0838 148.391 14.8875C148.771 14.6587 149.194 14.543 149.659 14.543C150.244 14.543 150.732 14.7276 151.12 15.0981C151.604 15.5518 151.844 16.2291 151.844 17.1287V20.7999Z" fill="white"/>
<path d="M161.248 15.6912H159.71V18.6682C159.71 19.4248 159.983 19.8031 160.524 19.8031C160.775 19.8031 160.983 19.7823 161.147 19.7394L161.183 20.7729C160.907 20.8743 160.544 20.925 160.098 20.925C159.546 20.925 159.116 20.7612 158.806 20.4336C158.494 20.106 158.339 19.5548 158.339 18.7813V15.6912H157.42V14.6707H158.339V13.5475L159.708 13.1445V14.6694H161.247V15.6912H161.248Z" fill="white"/>
<path d="M168.646 20.7995H167.247V17.3155C167.247 16.217 166.826 15.6671 165.982 15.6671C165.334 15.6671 164.891 15.9856 164.648 16.6226C164.607 16.7565 164.583 16.9203 164.583 17.1127V20.7982H163.187V11.8594H164.583V15.5527H164.61C165.05 14.8806 165.68 14.5452 166.498 14.5452C167.076 14.5452 167.555 14.7298 167.935 15.1003C168.408 15.5618 168.646 16.2482 168.646 17.1556V20.7995Z" fill="white"/>
<path d="M176.276 17.4459C176.276 17.6903 176.258 17.8957 176.224 18.0634H172.034C172.052 18.6692 172.252 19.1307 172.64 19.4505C172.995 19.7365 173.452 19.8795 174.012 19.8795C174.632 19.8795 175.198 19.7833 175.707 19.5896L175.926 20.536C175.33 20.7882 174.628 20.9143 173.816 20.9143C172.843 20.9143 172.076 20.6348 171.522 20.0758C170.964 19.5168 170.688 18.7667 170.688 17.8255C170.688 16.9012 170.946 16.1316 171.464 15.518C172.006 14.8628 172.738 14.5352 173.662 14.5352C174.566 14.5352 175.252 14.8628 175.716 15.518C176.091 16.038 176.276 16.6815 176.276 17.4459ZM174.943 17.0936C174.954 16.6893 174.862 16.3409 174.672 16.0471C174.43 15.6688 174.06 15.479 173.56 15.479C173.104 15.479 172.732 15.6636 172.448 16.0341C172.216 16.3292 172.079 16.6815 172.034 17.0936H174.943Z" fill="white"/>
<path d="M81.7836 42.1469V32.2235H81.7138L77.399 42.044H75.7522L71.4261 32.2235H71.3575V42.1469H69.3335V28.6641H71.9034L76.5356 39.3063H76.6144L81.2376 28.6641H83.8166V42.1469L81.7836 42.1469Z" fill="white"/>
<path d="M85.5264 39.3524C85.5264 37.6336 86.9245 36.5956 89.4055 36.4556L92.2625 36.3061V35.5586C92.2625 34.4654 91.4981 33.8483 90.198 33.8483C89.7164 33.788 89.2281 33.8953 88.8245 34.15C88.421 34.4048 88.13 34.7895 88.0063 35.232H86.0025C86.0622 33.456 87.8183 32.1953 90.2576 32.1953C92.7477 32.1953 94.3945 33.4751 94.3945 35.4091V42.1463H92.3413V40.5293H92.2917C91.9629 41.0776 91.4837 41.5326 90.9043 41.8467C90.3249 42.1608 89.6665 42.3225 88.998 42.3149C88.5589 42.3553 88.1158 42.3088 87.6969 42.1784C87.2781 42.048 86.8928 41.8365 86.5659 41.5575C86.239 41.2785 85.9776 40.9382 85.7986 40.5585C85.6196 40.1787 85.5268 39.7679 85.5264 39.3524ZM92.2625 38.4649V37.7079L89.6925 37.8574C88.4126 37.9326 87.6888 38.4554 87.6888 39.2962C87.6888 40.1561 88.443 40.717 89.5935 40.717C89.9267 40.7383 90.261 40.6965 90.5768 40.5942C90.8926 40.4918 91.1834 40.331 91.4322 40.1211C91.6809 39.9112 91.8825 39.6565 92.0251 39.3721C92.1677 39.0877 92.2484 38.7792 92.2625 38.4649H92.2625Z" fill="white"/>
<path d="M103.39 35.699C103.297 35.1613 102.992 34.6764 102.536 34.3407C102.08 34.005 101.507 33.843 100.931 33.887C99.2837 33.887 98.193 35.1858 98.193 37.2322C98.193 39.3252 99.2939 40.5859 100.95 40.5859C101.519 40.6396 102.088 40.4868 102.541 40.1588C102.995 39.8307 103.299 39.3521 103.39 38.8205H105.454C105.325 39.837 104.781 40.7662 103.936 41.4102C103.091 42.0542 102.013 42.3622 100.931 42.2686C97.9543 42.2686 96.0103 40.3527 96.0103 37.2322C96.0103 34.1764 97.9543 32.1958 100.91 32.1958C102.001 32.1087 103.084 32.4262 103.929 33.0807C104.774 33.7351 105.314 34.6747 105.435 35.699H103.39Z" fill="white"/>
<path d="M119.373 38.5026H113.917L112.607 42.1469H110.296L115.464 28.6641H117.865L123.033 42.1469H120.683L119.373 38.5026ZM114.482 36.821H118.807L116.675 30.9066H116.616L114.482 36.821Z" fill="white"/>
<path d="M134.194 37.2312C134.194 40.2859 132.459 42.2485 129.839 42.2485C129.176 42.2812 128.516 42.1372 127.935 41.8331C127.354 41.5289 126.876 41.0768 126.555 40.5287H126.506V45.3976H124.364V32.3156H126.437V33.9506H126.477C126.812 33.405 127.298 32.9553 127.883 32.6493C128.468 32.3433 129.131 32.1924 129.8 32.2127C132.448 32.2128 134.194 34.1849 134.194 37.2312ZM131.993 37.2312C131.993 35.241 130.901 33.9326 129.235 33.9326C127.598 33.9326 126.497 35.2685 126.497 37.2312C126.497 39.2118 127.598 40.5382 129.235 40.5382C130.901 40.5382 131.993 39.2394 131.993 37.2312Z" fill="white"/>
<path d="M145.681 37.2312C145.681 40.2859 143.945 42.2485 141.325 42.2485C140.662 42.2812 140.002 42.1372 139.421 41.8331C138.841 41.5289 138.362 41.0768 138.042 40.5287H137.992V45.3976H135.85V32.3156H137.924V33.9506H137.963C138.298 33.405 138.785 32.9553 139.37 32.6493C139.955 32.3433 140.617 32.1924 141.286 32.2127C143.935 32.2128 145.681 34.1849 145.681 37.2312ZM143.479 37.2312C143.479 35.241 142.387 33.9326 140.721 33.9326C139.084 33.9326 137.983 35.2685 137.983 37.2312C137.983 39.2118 139.084 40.5382 140.721 40.5382C142.387 40.5382 143.479 39.2394 143.479 37.2312H143.479Z" fill="white"/>
<path d="M153.272 38.3904C153.431 39.7275 154.81 40.6053 156.695 40.6053C158.5 40.6053 159.799 39.7274 159.799 38.5218C159.799 37.4753 159.016 36.8487 157.161 36.4193L155.305 35.9983C152.677 35.4003 151.457 34.2425 151.457 32.3636C151.457 30.0373 153.609 28.4395 156.665 28.4395C159.69 28.4395 161.763 30.0373 161.833 32.3636H159.671C159.541 31.0181 158.361 30.2059 156.635 30.2059C154.909 30.2059 153.728 31.0277 153.728 32.2237C153.728 33.1769 154.483 33.7378 156.328 34.1672L157.905 34.5319C160.842 35.1861 162.062 36.2973 162.062 38.2695C162.062 40.7919 159.929 42.3718 156.536 42.3718C153.361 42.3718 151.218 40.829 151.08 38.3903L153.272 38.3904Z" fill="white"/>
<path d="M166.685 29.9883V32.3146H168.669V33.9125H166.685V39.3316C166.685 40.1735 167.082 40.5658 167.955 40.5658C168.19 40.562 168.425 40.5464 168.659 40.5191V42.1075C168.267 42.1765 167.868 42.2078 167.469 42.2008C165.357 42.2008 164.533 41.4533 164.533 39.5468V33.9125H163.015V32.3146H164.533V29.9883H166.685Z" fill="white"/>
<path d="M169.818 37.2317C169.818 34.1388 171.752 32.1953 174.768 32.1953C177.793 32.1953 179.718 34.1388 179.718 37.2317C179.718 40.3331 177.803 42.2682 174.768 42.2682C171.733 42.2682 169.818 40.3331 169.818 37.2317ZM177.536 37.2317C177.536 35.1101 176.503 33.8579 174.768 33.8579C173.032 33.8579 171.999 35.1196 171.999 37.2317C171.999 39.3619 173.032 40.6046 174.768 40.6046C176.503 40.6046 177.536 39.3619 177.536 37.2317H177.536Z" fill="white"/>
<path d="M181.485 32.3155H183.528V33.9886H183.578C183.716 33.4661 184.041 33.0043 184.498 32.6809C184.956 32.3574 185.517 32.1921 186.088 32.2126C186.335 32.2118 186.581 32.2371 186.822 32.2879V34.1753C186.511 34.0856 186.185 34.0444 185.86 34.0533C185.549 34.0414 185.238 34.0931 184.95 34.2048C184.662 34.3165 184.403 34.4856 184.191 34.7005C183.979 34.9154 183.819 35.1709 183.722 35.4496C183.624 35.7282 183.592 36.0235 183.628 36.3149V42.1455H181.485V32.3155Z" fill="white"/>
<path d="M196.698 39.259C196.41 41.0435 194.565 42.2682 192.205 42.2682C189.169 42.2682 187.284 40.3522 187.284 37.2784C187.284 34.195 189.179 32.1953 192.114 32.1953C195.002 32.1953 196.818 34.0636 196.818 37.0441V37.7354H189.447V37.8573C189.413 38.2191 189.461 38.5835 189.588 38.9265C189.715 39.2694 189.918 39.5829 190.183 39.8463C190.449 40.1096 190.771 40.3167 191.128 40.4539C191.485 40.591 191.869 40.655 192.254 40.6417C192.76 40.6863 193.268 40.5759 193.703 40.3268C194.137 40.0777 194.474 39.7032 194.664 39.259L196.698 39.259ZM189.457 36.3252H194.674C194.694 35.9999 194.641 35.6744 194.521 35.3691C194.4 35.0637 194.213 34.7852 193.973 34.5509C193.733 34.3167 193.444 34.1317 193.124 34.0077C192.804 33.8837 192.46 33.8233 192.114 33.8303C191.766 33.8283 191.42 33.8915 191.097 34.016C190.774 34.1406 190.481 34.3242 190.234 34.5561C189.987 34.7881 189.791 35.0638 189.657 35.3675C189.524 35.6711 189.456 35.9966 189.457 36.3252L189.457 36.3252Z" fill="white"/>
<rect x="0.5" y="0.5" width="207" height="55" rx="27.5" stroke="white"/>
</svg>
