<svg width="49" height="49" viewBox="0 0 49 49" fill="none" xmlns="http://www.w3.org/2000/svg">
<circle cx="24.5" cy="24.75" r="23.5" stroke="#1B2136"/>
<circle cx="24.5" cy="24.75" r="19.5" fill="#10152B"/>
<path d="M24.4999 27.8592C26.0785 27.8592 27.3583 26.5795 27.3583 25.0009C27.3583 23.4223 26.0785 22.1426 24.4999 22.1426C22.9213 22.1426 21.6416 23.4223 21.6416 25.0009C21.6416 26.5795 22.9213 27.8592 24.4999 27.8592Z" fill="#0061E6"/>
<path fill-rule="evenodd" clip-rule="evenodd" d="M37.1998 18.0909C37.0002 17.9115 36.7648 17.7763 36.5091 17.6944C36.2534 17.6126 35.9833 17.5858 35.7165 17.6159L33.1165 17.9076C30.5707 18.1914 27.9938 17.9561 25.5415 17.2159L23.4582 16.5909C21.0046 15.8574 18.4284 15.625 15.8832 15.9076L12.8332 16.2409C12.3729 16.2997 11.9497 16.5242 11.643 16.8723C11.3362 17.2205 11.1668 17.6686 11.1665 18.1326V30.4909C11.1672 30.7587 11.2243 31.0233 11.334 31.2675C11.4437 31.5117 11.6035 31.7302 11.8032 31.9086C12.0028 32.087 12.2378 32.2214 12.4927 32.3031C12.7477 32.3847 13.017 32.4118 13.2832 32.3826L15.8832 32.0909C18.429 31.8071 21.0059 32.0424 23.4582 32.7826L25.5415 33.4076C27.9951 34.1411 30.5712 34.3735 33.1165 34.0909L36.1415 33.7576C36.6018 33.6988 37.0249 33.4744 37.3317 33.1262C37.6385 32.778 37.8079 32.33 37.8082 31.8659V19.5076C37.8109 19.2421 37.7582 18.979 37.6534 18.7351C37.5487 18.4912 37.3942 18.2718 37.1998 18.0909ZM16.9332 20.5909L15.9832 20.6659L15.0832 20.7659C14.8323 20.7936 14.5808 20.7204 14.3839 20.5626C14.1869 20.4047 14.0608 20.1751 14.0332 19.9243C14.0055 19.6734 14.0787 19.4219 14.2365 19.2249C14.3944 19.028 14.624 18.9019 14.8748 18.8743L15.7748 18.7743C16.1248 18.7743 16.4748 18.7076 16.8248 18.6826C16.9555 18.6654 17.0884 18.6754 17.2151 18.7118C17.3417 18.7483 17.4595 18.8105 17.5611 18.8946C17.6626 18.9787 17.7457 19.0828 17.8052 19.2005C17.8646 19.3181 17.8992 19.4468 17.9066 19.5784C17.9141 19.71 17.8943 19.8418 17.8486 19.9654C17.8028 20.089 17.732 20.2019 17.6407 20.2969C17.5493 20.392 17.4393 20.4671 17.3176 20.5177C17.1958 20.5683 17.065 20.5932 16.9332 20.5909ZM24.4998 29.7576C23.5587 29.7576 22.6388 29.4785 21.8562 28.9557C21.0737 28.4328 20.4639 27.6897 20.1037 26.8202C19.7436 25.9507 19.6493 24.994 19.8329 24.071C20.0165 23.1479 20.4697 22.3001 21.1352 21.6346C21.8007 20.9691 22.6485 20.516 23.5715 20.3324C24.4946 20.1488 25.4513 20.243 26.3208 20.6031C27.1902 20.9633 27.9334 21.5732 28.4562 22.3557C28.9791 23.1382 29.2582 24.0582 29.2582 24.9993C29.2582 26.2613 28.7568 27.4716 27.8645 28.3639C26.9721 29.2563 25.7618 29.7576 24.4998 29.7576ZM34.1248 31.1326L33.2248 31.2326C32.8748 31.2743 32.5248 31.2993 32.1748 31.3243C32.0441 31.3415 31.9113 31.3315 31.7846 31.295C31.6579 31.2585 31.5401 31.1963 31.4386 31.1122C31.3371 31.0281 31.254 30.924 31.1945 30.8064C31.1351 30.6887 31.1005 30.56 31.093 30.4284C31.0856 30.2968 31.1053 30.1651 31.1511 30.0414C31.1969 29.9178 31.2676 29.805 31.359 29.7099C31.4504 29.6149 31.5604 29.5397 31.6821 29.4891C31.8038 29.4386 31.9347 29.4136 32.0665 29.4159C32.3832 29.4159 32.6998 29.3909 33.0165 29.3409L33.9165 29.2409C34.1674 29.2133 34.4189 29.2865 34.6158 29.4443C34.8127 29.6021 34.9389 29.8317 34.9665 30.0826C34.9941 30.3334 34.921 30.585 34.7631 30.7819C34.6053 30.9788 34.3757 31.105 34.1248 31.1326Z" fill="#0061E6"/>
</svg>
