<svg width="49" height="49" viewBox="0 0 49 49" fill="none" xmlns="http://www.w3.org/2000/svg">
<circle cx="24.5" cy="24.75" r="23.5" stroke="#1B2136"/>
<circle cx="24.5" cy="24.75" r="19.5" fill="#10152B"/>
<g clip-path="url(#clip0_3687_33234)">
<path d="M12.5289 26.2011L14.3436 15.9092C14.5038 15.0006 15.294 14.3613 16.1857 14.3613C16.2937 14.3613 32.0776 17.1345 32.0776 17.1345C33.0962 17.3141 33.7763 18.2855 33.5967 19.3041L33.4218 20.2963H19.1767C17.3696 20.2963 15.8993 21.7665 15.8993 23.5737V24.887V28.0731V28.697L14.048 28.3706C13.0294 28.191 12.3493 27.2197 12.5289 26.2011Z" fill="#0061E6"/>
<path d="M17.3038 29.4766H36.5V33.7661C36.5 34.8004 35.6615 35.6389 34.6272 35.6389H19.1766C18.1423 35.6389 17.3038 34.8004 17.3038 33.7661V29.4766ZM30.9244 33.9516H34.1105C34.4983 33.9516 34.8127 33.6372 34.8127 33.2493C34.8127 32.8615 34.4983 32.5471 34.1105 32.5471H30.9244C30.5365 32.5471 30.2221 32.8615 30.2221 33.2493C30.2221 33.6372 30.5365 33.9516 30.9244 33.9516Z" fill="#0061E6"/>
<path d="M36.4976 23.4807H17.306C17.3537 22.4888 18.1729 21.6992 19.1765 21.6992H34.6271C35.6307 21.6992 36.4499 22.4888 36.4976 23.4807Z" fill="#0061E6"/>
<path d="M36.5 24.8867H17.3038V28.0728H36.5V24.8867Z" fill="#0061E6"/>
</g>
<defs>
<clipPath id="clip0_3687_33234">
<rect width="24" height="24" fill="white" transform="matrix(-1 0 0 1 36.5 13)"/>
</clipPath>
</defs>
</svg>
