<svg width="208" height="56" viewBox="0 0 208 56" fill="none" xmlns="http://www.w3.org/2000/svg">
<path d="M55.32 40.6702L42.72 38.8502V28.2102H55.32V40.6702ZM55.32 27.2302H42.72V17.1502L55.32 15.3302V27.2302ZM72.54 43.0502L56.3 40.6702V28.2102H72.54V43.0502ZM72.54 27.2302H56.3V15.3302L72.54 12.9502V27.2302Z" fill="white"/>
<path d="M91.2199 21.4202C90.6599 21.7002 89.3999 21.9802 87.9999 21.9802C86.4599 21.9802 85.0599 21.5602 84.0799 20.5802C83.2399 19.7402 82.6799 18.3402 82.6799 16.6602C82.6799 13.5802 84.7799 11.2002 88.2799 11.2002C89.5399 11.2002 90.3799 11.4802 90.9399 11.6202L90.6599 12.7402C90.0999 12.4602 89.3999 12.3202 88.4199 12.3202C85.8999 12.3202 84.2199 13.8602 84.2199 16.5202C84.2199 19.1802 85.7599 20.7202 88.2799 20.7202C89.1199 20.7202 89.8199 20.5802 90.0999 20.4402V17.3602H87.9999V16.2402H91.3599V21.4202H91.2199Z" fill="white"/>
<path d="M94.02 18.3406C94.02 20.1606 95.28 21.0006 96.54 21.0006C97.52 21.0006 98.08 20.8606 98.64 20.5806L98.92 21.5606C98.5 21.8406 97.66 21.9806 96.4 21.9806C94.16 21.9806 92.76 20.4406 92.76 18.2006C92.76 15.9606 94.02 14.1406 96.26 14.1406C98.64 14.1406 99.34 16.2406 99.34 17.6406C99.34 17.9206 99.34 18.2006 99.34 18.3406H94.02ZM98.08 17.3606C98.08 16.5206 97.66 15.1206 96.26 15.1206C94.86 15.1206 94.3 16.3806 94.16 17.3606H98.08Z" fill="white"/>
<path d="M102.7 12.1807V14.2807H104.66V15.2607H102.7V19.3207C102.7 20.3007 102.98 20.7207 103.68 20.7207C104.1 20.7207 104.24 20.7207 104.52 20.5807V21.5607C104.24 21.7007 103.82 21.7007 103.26 21.7007C102.56 21.7007 102.14 21.5607 101.86 21.1407C101.44 20.7207 101.3 20.0207 101.3 19.1807V15.1207H100.18V14.1407H101.3V12.3207L102.7 12.1807Z" fill="white"/>
<path d="M110.96 12.1798C110.96 12.5998 110.68 13.0198 110.12 13.0198C109.7 13.0198 109.28 12.5998 109.28 12.1798C109.28 11.7598 109.7 11.3398 110.12 11.3398C110.54 11.3398 110.96 11.7598 110.96 12.1798ZM109.42 21.8398V14.2798H110.82V21.8398H109.42Z" fill="white"/>
<path d="M114.6 12.1807V14.2807H116.56V15.2607H114.6V19.3207C114.6 20.3007 114.88 20.7207 115.58 20.7207C116 20.7207 116.14 20.7207 116.42 20.5807V21.5607C116.14 21.7007 115.72 21.7007 115.16 21.7007C114.46 21.7007 114.04 21.5607 113.76 21.1407C113.34 20.7207 113.2 20.0207 113.2 19.1807V15.1207H112.08V14.1407H113.2V12.3207L114.6 12.1807Z" fill="white"/>
<path d="M128.04 18.0606C128.04 20.8606 126.08 22.1206 124.26 22.1206C122.3 22.1206 120.62 20.5806 120.62 18.2006C120.62 15.6806 122.3 14.1406 124.26 14.1406C126.64 14.1406 128.04 15.6806 128.04 18.0606ZM122.16 18.0606C122.16 19.7406 123.14 21.0006 124.4 21.0006C125.66 21.0006 126.64 19.7406 126.64 18.0606C126.64 16.8006 125.94 15.1206 124.4 15.1206C122.86 15.1206 122.16 16.6606 122.16 18.0606Z" fill="white"/>
<path d="M129.72 16.3806C129.72 15.5406 129.72 14.9806 129.72 14.2806H130.98L131.12 15.5406C131.54 14.8406 132.38 14.1406 133.64 14.1406C134.62 14.1406 136.3 14.7006 136.3 17.3606V21.8406H134.9V17.5006C134.9 16.2406 134.48 15.2606 133.22 15.2606C132.38 15.2606 131.68 15.9606 131.4 16.6606C131.4 16.8006 131.26 17.0806 131.26 17.3606V21.8406H129.86V16.3806H129.72Z" fill="white"/>
<path d="M86.32 44.5201L82.54 29.2601H84.64L86.46 36.9601C86.88 38.9201 87.3 40.7401 87.58 42.2801C87.86 40.7401 88.28 38.9201 88.84 36.9601L90.8 29.2601H92.9L94.72 36.9601C95.14 38.7801 95.56 40.6001 95.84 42.1401C96.12 40.4601 96.54 38.7801 97.1 36.8201L99.06 29.1201H101.02L96.68 44.3801H94.58L92.62 36.4001C92.2 34.4401 91.78 32.9001 91.64 31.3601C91.36 32.9001 91.08 34.3001 90.52 36.4001L88.42 44.3801H86.32V44.5201Z" fill="white"/>
<path d="M104.52 30.3801C104.52 31.0801 104.1 31.6401 103.26 31.6401C102.56 31.6401 102 31.0801 102 30.3801C102 29.6801 102.56 29.1201 103.26 29.1201C104.1 29.2601 104.52 29.6801 104.52 30.3801ZM102.28 44.5201V33.6001H104.24V44.5201H102.28Z" fill="white"/>
<path d="M106.76 36.5403C106.76 35.4203 106.76 34.4403 106.62 33.6003H108.44L108.58 35.4203C109.14 34.4403 110.4 33.3203 112.22 33.3203C113.76 33.3203 116 34.1603 116 37.9403V44.5203H114.04V38.2203C114.04 36.4003 113.34 35.0003 111.52 35.0003C110.26 35.0003 109.14 35.9803 108.86 37.1003C108.72 37.3803 108.72 37.6603 108.72 38.0803V44.6603H106.76V36.5403Z" fill="white"/>
<path d="M128.46 28.4203V41.7203C128.46 42.7003 128.46 43.8203 128.6 44.5203H126.78L126.64 42.5603C126.08 43.8203 124.68 44.6603 123 44.6603C120.34 44.6603 118.38 42.4203 118.38 39.0603C118.38 35.4203 120.62 33.1803 123.28 33.1803C124.96 33.1803 126.08 34.0203 126.5 34.8603V28.2803H128.46V28.4203ZM126.5 37.9403C126.5 37.6603 126.5 37.3803 126.36 37.1003C126.08 35.8403 124.96 34.8603 123.56 34.8603C121.46 34.8603 120.34 36.6803 120.34 39.0603C120.34 41.3003 121.46 43.1203 123.56 43.1203C124.82 43.1203 126.08 42.2803 126.5 40.7403C126.5 40.4603 126.64 40.1803 126.64 39.9003V37.9403H126.5Z" fill="white"/>
<path d="M140.92 38.9203C140.92 42.9803 138.12 44.8003 135.46 44.8003C132.52 44.8003 130.28 42.5603 130.28 39.2003C130.28 35.5603 132.66 33.3203 135.74 33.3203C138.82 33.3203 140.92 35.5603 140.92 38.9203ZM132.38 39.0603C132.38 41.4403 133.78 43.2603 135.74 43.2603C137.56 43.2603 139.1 41.4403 139.1 39.0603C139.1 37.2403 138.12 34.8603 135.88 34.8603C133.36 34.7203 132.38 36.9603 132.38 39.0603Z" fill="white"/>
<path d="M143.44 33.46L144.84 39.06C145.12 40.32 145.4 41.44 145.68 42.56C145.96 41.44 146.24 40.32 146.66 39.06L148.48 33.46H150.16L151.84 38.92C152.26 40.18 152.54 41.44 152.82 42.56C152.96 41.44 153.24 40.32 153.66 39.06L155.2 33.6H157.16L153.66 44.52H151.84L150.16 39.34C149.74 38.08 149.46 37.1 149.18 35.7C148.9 36.96 148.62 38.08 148.2 39.34L146.38 44.52H144.7L141.48 33.6H143.44V33.46Z" fill="white"/>
<path d="M158.7 42.4203C159.26 42.8403 160.38 43.2603 161.36 43.2603C162.76 43.2603 163.46 42.5603 163.46 41.5803C163.46 40.6003 162.9 40.0403 161.5 39.6203C159.54 38.9203 158.56 37.8003 158.56 36.5403C158.56 34.7203 159.96 33.3203 162.34 33.3203C163.46 33.3203 164.44 33.6003 165 34.0203L164.44 35.4203C164.02 35.1403 163.18 34.7203 162.2 34.7203C161.08 34.7203 160.38 35.4203 160.38 36.2603C160.38 37.1003 161.08 37.5203 162.48 38.0803C164.3 38.7803 165.28 39.7603 165.28 41.4403C165.28 43.4003 163.74 44.6603 161.22 44.6603C159.96 44.6603 158.98 44.3803 158.14 43.9603L158.7 42.4203Z" fill="white"/>
<rect x="0.5" y="0.5" width="207" height="55" rx="27.5" stroke="#1B2136"/>
</svg>
